<?xml version="1.0" encoding="utf-8"?>
<!-- Generator: Adobe Illustrator 23.0.3, SVG Export Plug-In . SVG Version: 6.00 Build 0)  -->
<svg version="1.1" id="Layer_1" xmlns="http://www.w3.org/2000/svg" xmlns:xlink="http://www.w3.org/1999/xlink" x="0px" y="0px"
	 viewBox="0 0 2500 2500" style="enable-background:new 0 0 2500 2500;" xml:space="preserve">
<style type="text/css">
	.st0{fill-rule:evenodd;clip-rule:evenodd;}
	.st1{fill:#FFFFFF;}
	.st2{fill-rule:evenodd;clip-rule:evenodd;fill:#00ACEC;}
	.st3{fill-rule:evenodd;clip-rule:evenodd;fill:#FFFFFF;}
	.st4{fill:#FFFFFF;stroke:#000000;stroke-miterlimit:10;}
</style>
<path class="st0" d="M1250,0c688.5,0,1250,561.5,1250,1250c0,688.5-561.5,1250-1250,1250S0,1938.5,0,1250C0,561.5,561.5,0,1250,0z"
	/>
<path class="st1" d="M523.8,875.1l-295-253.7L339.3,493c22.5-26.1,43.5-44.5,63-55.2c19.6-10.7,39.4-15.2,59.5-13.4
	c20,1.7,36.9,8.3,50.5,20c12.6,10.8,21,25,25.3,42.5c4.4,17.5,3,37.2-3.9,59.1c23-16.2,45.6-24.4,67.8-24.7
	c22.2-0.3,41.9,7,59.1,21.7c13.6,11.6,23.8,26.5,29.8,43.3c6.1,17,8,33.2,5.9,48.7c-2.1,15.5-8.1,32.2-17.6,50
	c-9.6,17.8-23.8,37.6-42.5,59.5L523.8,875.1z M391.8,682.7l63.6-74c17.2-20,28.4-35.4,33.7-46.1c6.9-14,9.5-26.9,7.6-38.6
	c-1.9-11.7-7.9-22-18.2-30.9c-9.7-8.4-20.7-13.1-32.8-14.1c-12.2-0.9-24,2.5-35.4,10.2c-11.4,7.8-27.8,23.9-48.9,48.6L302.6,606
	L391.8,682.7L391.8,682.7z M527.9,799.8l73.2-85.2c12.6-14.7,21-25.4,25.1-32c7.3-11.8,12.1-22.8,14.4-33.1
	c2.3-10.2,1.8-20.7-1.5-31.3c-3.4-10.7-9.6-20.1-19-28.2c-11-9.5-23.3-14.4-37.1-14.9c-13.7-0.4-27.2,3.7-40.5,12.5
	c-13.2,8.8-29.2,24.1-47.9,45.8l-68,79.1L527.9,799.8z M1014.2,439.3V105.7h88l104.4,236.2c9.7,22,16.8,38.5,21.1,49.4
	c5-12.1,12.8-30,23.5-53.5l105.6-232.1h78.6v333.6h-56.3V160l-128.2,279.3h-52.7l-127.6-284v284H1014.2L1014.2,439.3z M1812.1,634.1
	l204.1-276.8l27.9,34.4l-138.3,175.9c-14.2,18.3-29,36.2-44.3,53.6c32.9-15.9,51.8-25,57.1-27.3l213.7-93.3l32.8,40.5l-101.5,142.3
	c-25.1,35.4-50.3,66.7-75.6,93.9c18.9-10,41.1-21,66.5-33l198.4-95l27.3,33.7l-314.9,140.1l-26.2-32.3l153.8-213
	c12.9-17.9,20.8-28.7,23.9-32.6c-14,7-26.1,12.7-36.4,17.2l-240.6,105.9L1812.1,634.1z"/>
<path class="st2" d="M1988.4,1262.4c0,399.9-326.1,726-726,726v-726H1988.4z"/>
<path class="st3" d="M1988.4,1237.6c0-399.9-326.1-726-726-726v726H1988.4z"/>
<path class="st2" d="M511.6,1237.6c0-399.9,326.1-726,726-726v726H511.6z"/>
<path class="st3" d="M511.6,1262.4c0,399.9,326.1,726,726,726v-726H511.6z"/>
<g>
	<g>
		<path class="st4" d="M587.6,1942.7c-3.6-2.6-5.4-3.9-9-6.6c1.1-3.2,2-7.3,2.6-12.4c0.6-5.1,0.9-10.1,0.8-15.1
			c-0.1-5.2-0.6-10.2-1.7-14.9c-1.1-4.7-2.8-8.4-5.3-10.8c-2.3-2.3-5.4-5-9.1-8.3c-3.7-3.2-7.2-6.2-10.5-8.9
			c-2.8-2.3-4.2-3.5-7.1-5.9c-32.6,39.1-65.2,78.2-97.8,117.3c-1.9,2.3-3,4.9-3.3,7.9c-0.3,3,0.8,6.3,3.2,10.1
			c1.3,1.9,4.3,5.4,9,10.6c4.8,5.2,8.7,9,11.6,11.5c-2.4,3-3.5,4.5-5.9,7.5c-32.4-25.6-63.5-52.5-93.6-80.8c2.6-2.8,3.9-4.2,6.6-6.9
			c2.6,2.2,6.7,5.6,12.2,10c5.5,4.4,9.6,7.2,12.1,8.4c3.8,1.8,7.1,2.6,10,2.2c2.9-0.4,5.5-2,8-4.7c34.1-38.4,68.1-76.8,102.2-115.1
			c-2.8-2.5-4.1-3.7-6.9-6.2c-2.4-2.2-5.5-4.9-9.2-8.1c-3.7-3.2-7.3-6.2-10.9-9c-2.8-2.2-6.7-3.4-11.6-3.8c-5-0.4-10-0.3-15.2,0.3
			c-5.2,0.6-10.2,1.6-15.2,3c-5,1.4-8.9,2.8-11.7,4.1c-3.3-3.3-4.9-5-8.2-8.4c12.4-12,24.8-24,37.2-36.1
			c45.5,46.3,94.3,88.6,146.9,126.8C607.8,1914.6,597.7,1928.7,587.6,1942.7z"/>
		<path class="st4" d="M818.8,2025c-2.6-1-6.7-2.2-12.1-3.5c-5.4-1.3-10.1-1.8-14.1-1.5c-4,0.4-8,3.3-11.9,8.6
			c-3.9,5.3-7.9,12.2-11.9,20.6c-11.7,25.1-23.5,50.2-35.2,75.2c-3.4,8.3-11.6,17.2-19.4,21.4c-8,4.3-19.6,7.3-28.7,7.4
			c-9.9,0.2-21.5-1.4-31-4.2c-9.3-2.7-19.3-6.7-27.8-11.5c-11.9-6.7-23.9-14.7-33.1-24.4c-7.3-7.7-14.5-16.1-19.2-26.2
			c-4-8.6-5.8-16.8-5.6-24.5c0.3-7.7,2.4-14.5,6.4-20.5c20.7-31.4,41.5-62.8,62.2-94.3c1.7-2.6,2.7-5.1,2.8-7.6
			c0.2-2.4-0.8-5.4-2.8-8.9c-1.4-2.5-3.6-5.2-6.5-8.1c-2.9-2.9-5.4-5.2-7.4-6.8c2.2-3.1,3.3-4.7,5.5-7.8
			c24.9,17.2,50.2,33.4,76.3,48.8c-1.9,3.3-2.9,5-4.8,8.3c-2.5-1.4-5.8-2.8-10-4.5c-4.1-1.6-7.2-2.7-9.3-3.2
			c-3.6-0.9-6.5-0.6-8.8,0.9c-2.3,1.5-4.3,3.5-5.8,6c-18.5,29.9-36.9,59.8-55.4,89.7c-2.7,4.3-4.9,9.3-6.6,14.8
			c-1.7,5.5-2,11.6-0.8,17.9c1.3,6.5,4.6,13.4,9.9,20c6.8,8.6,16.5,15.3,26,20.2c9.6,5,19.9,9.8,30.9,11.2
			c9.2,1.2,17.2,0.6,23.9-1.7c6.4-2.2,11.6-5.3,15.7-9.2c4.1-3.9,7.3-8.3,9.6-13.1c11.4-23.5,22.8-47,34.1-70.5
			c4.3-9,7.1-16.6,8.4-23.1c1.3-6.4,0.9-11.2-1-14.4c-2.2-3.6-5.8-7.3-10.7-11.3c-4.9-3.9-8.8-6.8-11.6-8.4c1.8-3.4,2.7-5.1,4.5-8.5
			c25.9,13.5,52.2,26.1,79,37.7C821,2019.8,820.3,2021.5,818.8,2025z"/>
		<path class="st4" d="M990.4,2125.8c-4.2-1-6.3-1.5-10.5-2.5c-0.1-3.4-0.9-7.5-2.1-12.4c-1.3-4.9-2.9-9.6-4.7-14.2
			c-1.9-4.7-4.2-9.1-6.9-13c-2.7-3.9-5.5-6.6-8.6-7.8c-2.9-1.2-6.6-2.5-11.1-4c-4.5-1.5-8.7-2.8-12.5-4c-3.4-1-5-1.5-8.4-2.6
			c-15.1,48.6-30.2,97.3-45.4,145.9c-0.9,2.8-0.9,5.7-0.1,8.5c0.8,2.8,3,5.5,6.4,7.9c1.8,1.2,5.7,3.3,11.8,6.2
			c6.1,2.9,10.9,4.8,14.5,5.9c-1,3.7-1.5,5.5-2.6,9.2c-37.8-10.6-75-22.8-111.8-36.5c1.4-3.6,2-5.4,3.4-8.9c3.1,1,7.9,2.4,14.4,4.2
			c6.5,1.8,11.1,2.7,13.7,2.8c4,0.2,7.2-0.5,9.6-2c2.4-1.5,4.2-4,5.4-7.5c16.7-48.5,33.3-97.1,50-145.6c-3.3-1.1-5-1.7-8.3-2.9
			c-2.9-1-6.6-2.3-11-3.7c-4.4-1.5-8.7-2.7-12.8-3.8c-3.2-0.8-7.1-0.4-11.6,1.2c-4.5,1.7-8.9,3.8-13.3,6.4
			c-4.4,2.6-8.5,5.6-12.4,8.9c-3.9,3.3-6.9,6.1-8.9,8.5c-4.1-1.7-6.1-2.5-10.2-4.3c6.7-15.9,13.5-31.8,20.2-47.7
			c57,23.8,115.4,42.8,175.5,57.3C998.3,2092.2,994.4,2109,990.4,2125.8z"/>
		<path class="st4" d="M1185.4,2124.8c9,9.5,16.1,20.7,20.9,32.9c5.2,13.2,7.3,27.4,6.9,41.5c-0.4,14.2-3.6,28.4-10.3,41
			c-6.4,12.1-15.8,22.5-26.9,30.3c-11.5,8.1-25,14.3-38.6,17.1c-15.3,3.2-30.9,4-46.1,2.1c-15.9-2-32-6.7-46.1-14.2
			c-12.2-6.5-23.8-15.5-32.9-27c-8.3-10.4-14.2-22.8-17.1-35.8c-3-13.4-3-27.8,0.2-40.8c3.4-13.8,8.4-27,17.2-38.7
			c7.8-10.5,17.6-19.5,28.7-26.4c11-6.8,23.2-11.6,35.8-14.2c12.9-2.6,26.2-3.1,39.2-1.5c13.3,1.7,26.3,5.4,38.4,11.3
			C1166.1,2108,1176.6,2115.6,1185.4,2124.8z M1152.1,2258.2c6.4-7.1,12.6-17.5,15.7-26.6c3.7-11,5.8-23,6.5-34.2
			c0.8-12.1-0.1-24-2.1-36.3c-1.5-9.6-5.6-20.5-10.7-28.9c-5-8-11.5-14.5-19.2-19.6c-7.6-5-18.5-8.8-27.5-9.5
			c-10.5-0.8-21.3-0.8-31.3,3.1c-8.3,3.2-17.7,9.6-23.7,16.2c-6.4,7-12.4,16.6-16.2,25.3c-4.5,10.2-7.9,21.4-9.9,32.1
			c-2.1,11.2-3.1,23.5-2.2,35.2c0.8,9.6,4.2,21.3,8.7,29.7c4.3,8,12.2,17,20,22c9.7,6.2,21.4,10.3,32.6,11.3c11.2,1,22.9,0.7,33.9-3
			C1135.4,2271.9,1145.9,2265.1,1152.1,2258.2z"/>
		<path class="st4" d="M1480.2,2274.7c-21.9,3.8-43.8,7.2-65.8,10.1c-14.7-13.9-29.4-27.8-44.1-41.7c-13.2-12.4-26.5-24.8-39.8-37.1
			c-9.4,0.6-14.1,0.9-23.5,1.3c0.9,20.2,1.9,40.3,2.8,60.5c0.1,3.1,0.9,5.9,2.3,8.2c1.4,2.3,4.1,4,8.3,5c2.1,0.5,5.7,0.9,10.9,1.1
			c5.2,0.2,9.6,0.2,13.1,0.1c0.3,3.8,0.4,5.7,0.7,9.5c-34.7,2.3-69.4,3.5-104.2,3.3c0-3.8,0-5.7,0.1-9.6c2.8-0.2,6.8-0.4,12-0.9
			c5.2-0.5,8.9-1.1,10.9-1.8c3.4-1.2,5.9-2.9,7.4-5.2c1.5-2.3,2.2-5.2,2.2-8.6c-0.8-46-1.6-92-2.4-138c-0.1-3.1-0.6-5.9-1.6-8.3
			c-1-2.4-3.4-4.2-7.1-5.4c-2.5-0.8-5.7-1.5-9.7-2.2c-4-0.7-7.4-1.1-10.1-1.3c0-3.8,0-5.7,0.1-9.6c32.3,0.1,64.6-1.1,96.8-3.5
			c8.9-0.7,17.2-0.7,25.2,0.2c7.9,0.8,15.3,2.7,22.1,5.6c6.6,2.8,12.1,6.8,16.6,12c4.5,5.2,7.4,11.9,8.5,19.9
			c1,7.3,0.7,13.9-1.1,19.9c-1.8,6-5.1,11.3-9.6,16.1c-4.2,4.4-9.5,8.5-15.9,12c-6.4,3.6-13.5,6.7-21.5,9.5
			c10.5,9.5,21,19,31.7,28.3c10.6,9.3,21.4,18.3,32.4,27.1c5.7,4.6,10.8,7.9,15.2,9.8c4.4,1.9,8.7,3.4,13,4.3
			c3.1,0.7,7,0.9,11.5,0.8c4.5-0.1,8.3-0.4,11.3-0.9C1479.2,2269.1,1479.6,2271,1480.2,2274.7z M1374.3,2146.3
			c-0.8-9-6.4-20.8-14.1-26.2c-9.2-6.4-21-8.4-32.1-7.5c-10.1,0.7-15.2,1-25.4,1.5c1.3,27.2,2.5,54.5,3.8,81.7
			c8.4-0.4,12.6-0.6,21-1.2c13.2-0.7,26.2-5.5,35.7-14.8C1372.2,2171.1,1375.3,2158.2,1374.3,2146.3z"/>
		<path class="st4" d="M1595.2,2248.5c-36,9.8-72.1,18.1-108.7,25.1c-0.7-3.8-1.1-5.6-1.8-9.4c3-0.7,7.4-1.8,13.1-3.3
			c5.7-1.5,9.7-2.8,11.9-4c3.5-1.9,5.9-4,7.1-6.4c1.3-2.3,1.5-5.3,0.7-8.8c-9.8-45.1-19.5-90.1-29.3-135.2c-0.7-3.1-1.8-5.5-3.3-7.3
			c-1.5-1.8-4.5-3-8.8-3.6c-3.2-0.4-7.1-0.7-11.7-0.7c-4.6,0-8.4,0.1-11.3,0.4c-0.7-3.8-1.1-5.6-1.8-9.4c31.1-6,61.9-13.1,92.5-21.4
			c1,3.7,1.5,5.5,2.6,9.2c-3,0.9-6.5,2.2-10.5,3.9c-4,1.7-7.5,3.3-10.4,5c-3.4,2-5.5,4.3-6.2,7c-0.7,2.7-0.7,5.4,0,8.3
			c11.1,44.7,22.1,89.5,33.2,134.2c0.7,2.9,2.1,5.2,4.3,7c2.2,1.8,5.4,2.9,9.6,3.2c2.5,0.1,6.6-0.1,12.1-0.7
			c5.5-0.6,10.2-1.4,13.9-2.3C1593.6,2243,1594.1,2244.8,1595.2,2248.5z"/>
		<path class="st4" d="M1841.1,2151.8c-31.1,15.9-62.6,30.7-94.7,44.3c-1.5-3.5-2.2-5.3-3.7-8.8c8.2-3.9,14.8-7.8,19.8-11.4
			c5-3.7,7-6.4,6.2-8.2c-0.3-0.7-0.8-1.6-1.5-2.6c-0.7-1-1.4-1.8-2.2-2.4c-12-10.2-23.8-20.6-35.5-31.2
			c-25.6,10.8-51.4,20.8-77.6,30.1c-0.9,7-1.5,13-1.9,18c-0.4,5.1-0.7,9.7-0.9,14c-0.2,4.1-0.2,7.4,0.1,9.9s0.6,4.4,1.1,5.9
			c1.1,3.4,5.5,4.9,13,4.4c7.6-0.5,15.7-2.1,24.5-4.9c1.3,3.6,2,5.4,3.3,9c-29.5,10.6-59.2,20.2-89.2,28.9c-1-3.7-1.6-5.5-2.6-9.2
			c2.9-1,6.3-2.5,10.4-4.6c4.1-2.1,7.3-4.2,9.7-6.5c3.7-3.7,6.4-7.1,8-10.4c1.6-3.3,2.9-7.5,3.7-12.7c4.8-29.5,8.5-59.3,11.2-89
			c2.6-28.9,4.5-58.1,5.5-87.2c4.5-1.7,6.7-2.6,11.1-4.4c43.3,42.5,88.8,82.3,136.5,119.7c3.1,2.4,6.1,4.1,9,5
			c2.9,1,6.6,1.5,11.1,1.6c3-0.1,6.6-0.7,10.9-1.9c4.3-1.2,7.7-2.5,10.4-3.7C1838.5,2146.7,1839.4,2148.4,1841.1,2151.8z
			 M1719.1,2122.9c-20.4-18.1-40.3-36.7-59.8-55.8c-1.4,27.2-3.4,54.2-6,81.3C1675.5,2140.4,1697.4,2131.9,1719.1,2122.9z"/>
		<path class="st4" d="M1987.9,1992.2c10,16.2,19.9,32.4,29.8,48.6c-53.6,39.7-109.7,75.3-168.5,106.7c-1.8-3.4-2.7-5.1-4.5-8.5
			c2.4-1.5,5.9-3.7,10.4-6.6c4.5-2.9,7.5-5.3,9-6.9c2.5-2.7,3.9-5.5,4.2-8.2c0.3-2.7-0.4-5.6-2.1-8.7c-22.3-39.7-44.7-79.5-67-119.2
			c-1.5-2.7-3.3-4.7-5.5-6.2c-2.2-1.5-5.2-1.9-8.9-1.5c-2.5,0.2-6,0.9-10.2,2c-4.2,1.1-7.6,2.2-10.1,3.3c-1.8-3.4-2.7-5.1-4.5-8.5
			c26.9-14.4,53.1-29.7,78.8-46c2.1,3.2,3.1,4.8,5.2,8c-2.4,1.6-5.3,4-8.7,7.1c-3.5,3.1-5.9,5.5-7.3,7.1c-2.4,2.8-3.5,5.6-3.3,8.5
			c0.2,2.9,1.1,5.6,2.6,8.2c22.1,36.6,44.1,73.3,66.2,109.9c3.1,5.1,5.8,8.8,8.1,11.2c2.3,2.4,5.2,3.7,8.6,3.7c3.1,0,7.2-1.3,12-3.7
			c4.8-2.4,11.4-6.3,19.6-11.6c3.7-2.4,7.5-5,11.4-7.8c3.9-2.8,7.5-5.6,10.7-8.5c3.2-2.8,5.9-5.6,8.3-8.4c2.4-2.8,3.8-5.2,4.3-7.4
			c1.6-6.2,2.6-14.6,2.9-25.2c0.3-10.6-0.2-18.6-1.3-24.3C1981.9,1996.7,1983.9,1995.2,1987.9,1992.2z"/>
		<path class="st4" d="M2096.3,1856.7c6.8-0.6,13.1,0.1,18.7,2c5.6,1.9,11,5.5,16,10.2c13.4,12.4,14.8,31.2,11.8,47.4
			c-4,21.3-18.8,41.7-35.3,55.9c-9.1,7.8-18.6,14.6-29.1,20.1c-9,4.8-19,9.1-29.3,11.7c0,5,0,7.5,0,12.6c-4.6,3.7-6.9,5.5-11.5,9.1
			c-14.1-16.7-28.1-33.4-42.1-50.1c4.4-3.4,6.6-5.2,11.1-8.7c7.3,4.5,14.5,8.1,21.7,10.6c7.2,2.6,15.1,4,23.8,4.1
			c8.2,0.1,16.6-1.5,25-4.6c8.9-3.3,18.5-9.7,25.3-16.1c6.1-5.7,11.2-11.3,14.7-16.8c3.5-5.5,5.7-10.7,6.5-15.6
			c0.8-4.9,0.5-9.4-1-13.6c-1.4-4.2-4-8.1-7.6-11.9c-5.3-5.5-12.4-8.5-21-9.4c-9.1-0.9-20.7,2.3-28.6,6.3
			c-6.9,3.5-15.2,7.3-24.4,11.6s-17.1,7.7-24,10.2c-11.5,4.5-24.1,7-36.4,5.3c-11.2-1.5-20.9-8.5-27.7-17.3
			c-4.4-5.7-7.3-12.1-8.4-19.3c-1.1-7.1-0.8-14.6,1.1-22.5c1.8-7.5,5-14.9,9.5-22.2c4.6-7.4,10.3-14,16.9-20
			c6.6-6,15-11.9,23.1-15.7c7.8-3.6,15.4-6.6,22.8-8.8c-0.7-4.5-1-6.7-1.7-11.1c3.6-3.6,5.4-5.4,9-9c15.3,14.6,30.7,29.1,46,43.6
			c-3.8,3.9-5.8,5.8-9.7,9.7c-6.9-3.4-13.7-6.5-20.5-9.1c-6.8-2.6-13.8-4.3-20.9-4.8c-6.9-0.6-13.9,0.3-20.8,2.5
			c-6.9,2.2-13.9,6.5-21,12.8c-7.5,6.7-12.2,14.3-14.1,23.1c-1.9,8.8-0.4,16.2,4.6,22.3c5.3,6.4,11.4,10.1,18.5,11.3
			c7.1,1.1,15.3,0,24.4-3.3c8.2-3,16-6.3,23.4-10c7.4-3.7,14.8-7.1,22-10.4c6.6-3,13.2-5.7,19.8-8
			C2083.7,1858.8,2090.1,1857.2,2096.3,1856.7z"/>
	</g>
</g>
</svg>
