<svg id="Capa_1" data-name="Capa 1" xmlns="http://www.w3.org/2000/svg" viewBox="0 0 1736.32 1442.15">
  <defs>
    <style>
      .cls-1 {
        fill: #c77c5d;
      }

      .cls-2 {
        fill: #fcddd0;
      }

      .cls-3 {
        fill: #b36851;
      }

      .cls-4 {
        fill: #ef85ac;
      }

      .cls-5 {
        fill: #98ca92;
      }

      .cls-6 {
        fill: #fff;
      }

      .cls-7 {
        fill: #b0d392;
      }

      .cls-8 {
        fill: #a3c17c;
      }

      .cls-9 {
        fill: #252929;
      }

      .cls-10 {
        fill: #5f2808;
      }

      .cls-11 {
        fill: #f5abac;
      }

      .cls-12 {
        fill: #ed70a1;
      }
    </style>
  </defs>
  <title>logo</title>
  <path class="cls-1" d="M721.26,1321c-16.9,95.49-10.3,206,69.37,272.84,84.37,70.75,213,54.47,276-36.24,62.68-90.16,35.89-211.36,14.28-310.68-18-82.91-106.49-274.89-217.71-200.92-33.94,22.57-56.33,62.9-76.24,97.31C755.15,1198.39,732.34,1258.33,721.26,1321Z" transform="translate(-157.12 -226.62)"/>
  <path class="cls-2" d="M753.12,1319.74c-16.89,95.5-10.29,206,69.38,272.84,84.36,70.75,213,54.47,276-36.24,62.68-90.16,35.88-211.37,14.28-310.68-18-82.91-106.5-274.89-217.71-200.92-34,22.57-56.34,62.9-76.25,97.31C787,1197.11,764.21,1257,753.12,1319.74Z" transform="translate(-157.12 -226.62)"/>
  <path class="cls-1" d="M1379.78,1233.41c.06-62.55-19-125-8.89-187.35C1392.29,914,1502,826.82,1622.43,837.28c57.43,5,101.34,28.48,138.73,75.86-38.68,1.94-75.67-12.39-110.71,47.5-25,42.77-14.94,95,3.26,138.26,54,128.38,71.12,330.51-70.45,410.77-82.92,47-224,63.63-278.35-36.29-19.29-35.46-26.14-103.7,7.85-131.45,16.33-13.34,36.09-16.92,49.31-35.25C1376.76,1286.28,1379.76,1258.52,1379.78,1233.41Z" transform="translate(-157.12 -226.62)"/>
  <path class="cls-2" d="M1620.3,896.38c-56.76,17.19-108,62.67-120.19,122.58-8.71,42.67,1.47,85.83,19.36,124.82,16.26,35.46,40.63,66.64,56.16,102.24,24.55,56.28,17.07,125.19-22.43,172.88-55.44,66.93-171,90-250.62,49.87.76,1.59,1.53,3.14,2.33,4.61,54.32,99.92,195.43,83.3,278.35,36.29,141.57-80.26,124.44-282.39,70.45-410.77-18.2-43.28-28.28-95.49-3.26-138.26,35-59.89,72-45.56,110.71-47.5-1.57-2-3.15-3.84-4.73-5.73C1714.09,888,1665.33,882.74,1620.3,896.38Z" transform="translate(-157.12 -226.62)"/>
  <path class="cls-1" d="M922,1649.84c89.12,33.75,187.81,16.71,282-7,181.57-45.8,257.69-275,119.79-412.38-54.07-53.88-100.91-111.32-153.14-166.54-61-64.54-150.76-81-234.64-58.29-39.42,10.67-64.71,21.1-84.41,54.87,0,0-90.6,212.94-41.06,438.12C810.53,1498.58,839.9,1618.74,922,1649.84Z" transform="translate(-157.12 -226.62)"/>
  <path class="cls-3" d="M1323.78,1230.42c-54.07-53.88-100.91-111.32-153.14-166.54-61-64.54-150.76-81-234.64-58.29-39.42,10.67-64.71,21.1-84.41,54.87,0,0-7.16,16.84-16.36,46,39.81,1,79.68.31,119.33-3.47,26.22-2.49,52.36-6,78.25-10.88,20.11-3.83,40.35-9.67,61-9.57,30,.14,56.09,11.22,79.29,30,34.21,27.68,65.28,60.46,95.52,92.34,28.88,30.45,61.55,62.12,80.71,100,16.29,32.16,24.48,68.07,21.77,104.19-6.33,84.73-48.22,158.73-109.71,211.53C1400,1546.31,1446.08,1352.29,1323.78,1230.42Z" transform="translate(-157.12 -226.62)"/>
  <path class="cls-1" d="M658.45,1244.87c118,24.33,256.41,26,256.41,26,60-77.87-.05-158.33-.05-158.33-160.7,18.16-256.36,59.7-256.36,59.7s-35,8.43-33,37.63C625.49,1209.82,625.41,1238.05,658.45,1244.87Z" transform="translate(-157.12 -226.62)"/>
  <path class="cls-1" d="M658.77,1642.89c15.51,31.44,309.86,26.74,338.76,23.69,80.53-8.53,47.65-146.48-106.51-110.09C860.72,1563.63,630.22,1585,658.77,1642.89Z" transform="translate(-157.12 -226.62)"/>
  <path class="cls-1" d="M822.9,1608.54c64.4,29.15,153.49,6.69,205.95-35.78,61.86-50.07,53.85-124.28,17.68-186.27-39-66.76-109.82-88.4-184.3-63.57-71.3,23.76-117.28,110.25-108.57,181.33C758.39,1542.89,785.52,1591.63,822.9,1608.54Z" transform="translate(-157.12 -226.62)"/>
  <path class="cls-3" d="M770,1617.46c48.31-13.77,100.34,7.65,148.27-6.58-32.08-10.69-66.3-22.47-92.57-44.09-76.55,12.25-187.18,34.94-166.88,76.1,5.05,10.24,39.66,16.64,85,20.52C743.5,1643.25,747.33,1623.91,770,1617.46Z" transform="translate(-157.12 -226.62)"/>
  <path class="cls-3" d="M822.9,1608.54a136,136,0,0,0,13.5,5.23c27.64,2,55.36,5,81.82-2.89-34.78-11.59-72.11-24.44-99.06-49.75-29.78-28-38.9-67.12-32.06-106.83,13-75.51,86-130.16,160.54-139-26.71-4.75-55.76-2.25-85.41,7.63-71.3,23.76-117.28,110.25-108.57,181.33C758.39,1542.89,785.52,1591.63,822.9,1608.54Z" transform="translate(-157.12 -226.62)"/>
  <path class="cls-4" d="M702.41,863.29c-7.19,26.12-33.79,65.6-66,47.91-37.19-20.42-45.11-66.83-47.58-94.51-3-34,23.18-107.17,73-102C701.86,718.8,713.37,823.5,702.41,863.29Z" transform="translate(-157.12 -226.62)"/>
  <path class="cls-5" d="M1324.59,1470.84c-47.85,26.83-99.64,45.63-151.46,64.09-5.45-10.9-9.77-23.4-13.24-36.64-.66-2.49-1.28-5-1.87-7.55-1.55-6.66-2.92-13.44-4.12-20.29l-.82-5c-1.32-8.06-2.45-16.16-3.35-24.06-.12-.78-.19-1.52-.27-2.26-.24-1.95-.47-3.93-.66-5.84,0-.43-.08-.82-.12-1.21-.12-1-.24-2-.35-3,0-.43-.08-.89-.12-1.32-.35-3.47-.66-6.89-1-10.28-.16-2-.31-3.93-.51-5.88-.81-9.46-1.48-18.34-2.14-26.24-.15-2.14-.35-4.24-.51-6.23-.26-2.92-.54-5.65-.81-8.22-.12-1.13-.23-2.25-.35-3.31-.19-1.51-.35-3.07-.55-4.59-.81-7.36-1.59-14.72-2.45-22.08-.31-2.65-.58-5.29-.9-7.9-.69-5.92-1.44-11.8-2.25-17.68-.16-1.32-.36-2.65-.59-4-.2-1.52-.39-3-.62-4.52-.2-1.28-.39-2.61-.62-3.89-1.48-9.57-3.27-19.08-5.45-28.5-.12-.58-.28-1.17-.39-1.75-1.91-8.06-4.13-16-6.74-23.91q-2.34-7.07-5.1-14c-.74-2-1.56-4-2.41-6-1.48-3.62-3.08-7.24-4.75-10.82-1.09-2.38-2.22-4.76-3.35-7.09-15.89-32.55-36.68-62.68-57.16-92.47h7.79a12.48,12.48,0,0,1-1.64,1.32c31.5-18.49,70.94-43,105.32-18.61,21.1,15,37,40.84,50.5,66.15,1.25,2.3,2.45,4.64,3.66,6.93,3.12,6,6.15,12,9.11,17.64.82,1.59,1.64,3.15,2.45,4.71l0,0,.47.9c.82,1.55,1.63,3.11,2.45,4.63,2.1,3.89,4.13,7.75,6.08,11.68v0c.42.93.89,1.83,1.36,2.76,1.95,4,3.86,8,5.64,12.08v0c.24.47.43.94.63,1.37l0,.07.38.82v0l.05.12c.19.43.38.85.58,1.28q2.44,5.61,4.79,11.21c.62,1.52,1.24,3.08,1.87,4.64l.35.89h0c1.28,3.24,2.56,6.55,3.81,9.82,2.5,6.57,4.9,13.23,7.24,19.89l2.58,7.48c2.41,7.2,4.74,14.44,7,21.72.78,2.49,1.6,5,2.38,7.51,2,6.43,4,12.86,5.88,19.28v0c.66,2.1,1.28,4.16,1.94,6.26,3,9.81,5.92,19.59,9,29.36.16.59.36,1.13.55,1.68v0c.47,1.59,1,3.15,1.44,4.71l.35,1.09c.43,1.29.82,2.57,1.25,3.85l.46,1.44c3,9.27,6,18.54,9.31,27.69.74,2.17,1.52,4.32,2.3,6.42,1,3,2.14,5.84,3.27,8.76.43,1.17.85,2.34,1.32,3.5s1,2.54,1.48,3.82C1317.85,1446,1322.33,1458.42,1324.59,1470.84Z" transform="translate(-157.12 -226.62)"/>
  <path class="cls-5" d="M1172.76,1520.43c3.39,15.12,8.09,30.47,17.07,43.31l7.43-1.54a36.16,36.16,0,0,1-4.57-4.77c-.59-.68-2.67-1-3.17,0-1.32,2.63-1.27,3.81.31,6.31s9.37,1.07,7.84-1.06c-9.41-13.07-12.71-28.88-21-42.51C1176.17,1519.28,1172.47,1519.12,1172.76,1520.43Z" transform="translate(-157.12 -226.62)"/>
  <path class="cls-5" d="M1195,1513.22c3.69,8.5,6.15,17.91,9.06,26.73,1.42,4.27,2.3,14.57,8.19,14.68.6,0,2.12-.59,1-1.17-2.54-1.31-.08,2,1.64-.41,1-1.34-3.17-9.41-3.7-10.87-3.51-9.65-6.24-21.29-12.78-29.42C1197.79,1512,1194.41,1511.86,1195,1513.22Z" transform="translate(-157.12 -226.62)"/>
  <path class="cls-5" d="M1220.34,1504.83c.18,7,3.1,14.11,5.42,20.64,1.65,4.6,3.17,13.78,7.34,16.72,1.13.8,4.66,1.36,5.4-.34,1.54-3.55-3.31-10.71-4.68-14-3.2-7.75-6-15.85-9.89-23.25C1223.47,1503.72,1220.31,1503.57,1220.34,1504.83Z" transform="translate(-157.12 -226.62)"/>
  <path class="cls-5" d="M1237.34,1497.36c2.75,6.13,5.26,12.36,8,18.49q2.27,5.09,4.55,10.15c1.59,3.53,2.4,4,5.11,6.38.42.38,2.23.54,2.27-.3.17-3.22.36-3.53-1.26-6.9s-3.19-6.75-4.78-10.13c-2.9-6.18-5.92-12.31-9.18-18.33C1241.3,1495.36,1236.58,1495.66,1237.34,1497.36Z" transform="translate(-157.12 -226.62)"/>
  <path class="cls-5" d="M1256.85,1487.31a158.05,158.05,0,0,0,4.43,17.08c1.91,6.4,3.35,13.49,8,18.4.68.7,3,.67,3.29-.44,1.31-5.63-1.94-11.48-3.74-16.79a153.54,153.54,0,0,0-7.47-18.55C1260.83,1485.87,1256.58,1485.83,1256.85,1487.31Z" transform="translate(-157.12 -226.62)"/>
  <path class="cls-5" d="M1280.21,1479.52c1.54,8.83,3.3,17.4,6.39,25.8,1.67,4.58,2.72,11.72,7.88,13.41,1,.35,3,.31,3.68-.73.31-.48-.17-1.26-.31-1.72-.29-1-3-.85-3.4,0l2,.21,1.84,1.19c-.82-4.44-3-8.92-4.82-13.28-3.46-8.19-5.93-16.72-8.68-25.18C1284.33,1478,1280,1478.11,1280.21,1479.52Z" transform="translate(-157.12 -226.62)"/>
  <path class="cls-5" d="M1294.45,1470c6.83,10.69,8.4,23.83,13.65,35.3,1,2.16,8.19,1.81,7.24-1a45.1,45.1,0,0,0-2.45-5.51,1.68,1.68,0,0,0-2.34,0,45.1,45.1,0,0,0-2.45,5.51h7.24c-5.84-11.76-8.74-24.61-17.49-34.78C1297.18,1468.79,1293.72,1468.89,1294.45,1470Z" transform="translate(-157.12 -226.62)"/>
  <path class="cls-5" d="M1312,1462c.7,13,10.51,22.74,13.87,35,.62,2.26,7.14,2.25,6.82,0-1.87-12.93-13.52-22.79-17.34-35.26C1315,1460.85,1311.91,1460.9,1312,1462Z" transform="translate(-157.12 -226.62)"/>
  <path class="cls-6" d="M1274.56,1315.64c-45.79,24-89.28,42.36-131.33,55.29-.12-1.13-.23-2.25-.35-3.31-.19-1.51-.35-3.07-.55-4.59,41.55-12.85,84.53-31.07,129.85-54.9C1273,1310.62,1273.78,1313.15,1274.56,1315.64Z" transform="translate(-157.12 -226.62)"/>
  <path class="cls-6" d="M1313.1,1433.58a878.26,878.26,0,0,1-153.21,64.71c-.66-2.49-1.28-5-1.87-7.55,50.93-15.89,101.94-37.5,152.28-64.48.43,1.17.85,2.34,1.32,3.5S1312.59,1432.3,1313.1,1433.58Z" transform="translate(-157.12 -226.62)"/>
  <path class="cls-6" d="M1218.37,1374.31a5.3,5.3,0,1,1-6.84-3.09A5.3,5.3,0,0,1,1218.37,1374.31Z" transform="translate(-157.12 -226.62)"/>
  <rect class="cls-6" x="1218.18" y="1377.95" width="1.99" height="27" transform="translate(-570.43 294.47) rotate(-20.71)"/>
  <path class="cls-6" d="M1229.52,1433.84a5.3,5.3,0,1,1,6.83,3.09A5.3,5.3,0,0,1,1229.52,1433.84Z" transform="translate(-157.12 -226.62)"/>
  <rect class="cls-6" x="1227.72" y="1403.21" width="1.99" height="27" transform="matrix(0.94, -0.35, 0.35, 0.94, -578.25, 298.57)"/>
  <path class="cls-6" d="M1240.61,1378.79a5.3,5.3,0,1,1-2.77-7A5.29,5.29,0,0,1,1240.61,1378.79Z" transform="translate(-157.12 -226.62)"/>
  <rect class="cls-6" x="1215.79" y="1390.69" width="27" height="1.99" transform="translate(-691.92 1744.63) rotate(-66.73)"/>
  <path class="cls-6" d="M1207.28,1429.36a5.3,5.3,0,1,1,2.76,7A5.29,5.29,0,0,1,1207.28,1429.36Z" transform="translate(-157.12 -226.62)"/>
  <rect class="cls-6" x="1205.1" y="1415.48" width="27" height="1.99" transform="translate(-721.96 1747.28) rotate(-66.65)"/>
  <path class="cls-6" d="M1253.5,1397.47a5.3,5.3,0,1,1,2.84-6.93A5.31,5.31,0,0,1,1253.5,1397.47Z" transform="translate(-157.12 -226.62)"/>
  <rect class="cls-6" x="1222.9" y="1397.88" width="27" height="1.98" transform="translate(-601.88 360.32) rotate(-22.75)"/>
  <path class="cls-6" d="M1194.39,1410.68a5.3,5.3,0,1,1-2.85,6.94A5.3,5.3,0,0,1,1194.39,1410.68Z" transform="translate(-157.12 -226.62)"/>
  <rect class="cls-6" x="1197.99" y="1408.29" width="27" height="1.99" transform="translate(-606.65 349.12) rotate(-22.67)"/>
  <path class="cls-6" d="M1249.79,1419.86a5.3,5.3,0,1,1,6.86-3A5.32,5.32,0,0,1,1249.79,1419.86Z" transform="translate(-157.12 -226.62)"/>
  <rect class="cls-6" x="1235.53" y="1395.48" width="1.99" height="27" transform="translate(-682.68 1822.1) rotate(-68.68)"/>
  <path class="cls-6" d="M1198.09,1388.3a5.3,5.3,0,1,1-6.86,3A5.29,5.29,0,0,1,1198.09,1388.3Z" transform="translate(-157.12 -226.62)"/>
  <rect class="cls-6" x="1210.37" y="1385.67" width="1.99" height="27.01" transform="translate(-689.55 1792.42) rotate(-68.68)"/>
  <path class="cls-6" d="M1149.26,1417.11l-.46.27-.55.16h0l-1,0c-.16-2-.31-3.93-.51-5.88a3.09,3.09,0,0,1,3.86,1.83A3,3,0,0,1,1149.26,1417.11Z" transform="translate(-157.12 -226.62)"/>
  <rect class="cls-6" x="1150.45" y="1415.54" width="1.15" height="15.54" transform="translate(-586.75 273.53) rotate(-20.75)"/>
  <path class="cls-6" d="M1157,1447.71a3,3,0,1,1,3.93,1.77A3,3,0,0,1,1157,1447.71Z" transform="translate(-157.12 -226.62)"/>
  <rect class="cls-6" x="1155.94" y="1430.08" width="1.15" height="15.54" transform="translate(-590.66 274.92) rotate(-20.7)"/>
  <path class="cls-6" d="M1163.36,1416a3.05,3.05,0,1,1-1.6-4A3.05,3.05,0,0,1,1163.36,1416Z" transform="translate(-157.12 -226.62)"/>
  <polygon class="cls-6" points="997.18 1204.18 996.13 1203.72 1002.27 1189.45 1003.32 1189.91 997.18 1204.18"/>
  <path class="cls-6" d="M1170.77,1426.77a3,3,0,1,1,1.64-4A3,3,0,0,1,1170.77,1426.77Z" transform="translate(-157.12 -226.62)"/>
  <polygon class="cls-6" points="996.86 1204.48 996.43 1203.43 1010.76 1197.44 1011.2 1198.49 996.86 1204.48"/>
  <path class="cls-6" d="M1154,1431.09l-.27.12-.27.11-.74.32-3.89,1.63c0-.43-.08-.82-.12-1.21l3.5-1.48h0l.82-.35.27-.12.24-.07.23.54Z" transform="translate(-157.12 -226.62)"/>
  <path class="cls-6" d="M1168.65,1439.66a3.05,3.05,0,1,1,3.94-1.73A3,3,0,0,1,1168.65,1439.66Z" transform="translate(-157.12 -226.62)"/>
  <rect class="cls-6" x="1160.43" y="1425.63" width="1.14" height="15.54" transform="translate(-753.73 1766.56) rotate(-68.66)"/>
  <path class="cls-6" d="M1154,1430l-.19.54-.23.55-.2-.08-.35-.16-.78-.31h0l-3.85-1.48c0-.43-.08-.89-.12-1.32l4.56,1.79.7.27.27.12Z" transform="translate(-157.12 -226.62)"/>
  <path class="cls-6" d="M1284.8,1362.75a3,3,0,1,1-3.93-1.77A3,3,0,0,1,1284.8,1362.75Z" transform="translate(-157.12 -226.62)"/>
  <polygon class="cls-6" points="1131.43 1153.05 1130.36 1153.46 1124.87 1138.92 1125.94 1138.52 1131.43 1153.05"/>
  <path class="cls-6" d="M1291.22,1397a3.05,3.05,0,1,1,3.93,1.78A3,3,0,0,1,1291.22,1397Z" transform="translate(-157.12 -226.62)"/>
  <rect class="cls-6" x="1290.19" y="1379.38" width="1.14" height="15.54" transform="translate(-562.82 316.58) rotate(-20.61)"/>
  <path class="cls-6" d="M1291.92,1372.26v0l-2.8,6.5-.36.78-.15.35-.08.19-.5-.23h0l-.51-.24.08-.19v0l.16-.27.31-.78,3.34-7.79C1291.53,1371.17,1291.73,1371.71,1291.92,1372.26Z" transform="translate(-157.12 -226.62)"/>
  <path class="cls-6" d="M1278.42,1394.43a3,3,0,1,1,1.59,4A3,3,0,0,1,1278.42,1394.43Z" transform="translate(-157.12 -226.62)"/>
  <rect class="cls-6" x="1277.17" y="1386.44" width="15.53" height="1.14" transform="translate(-655.01 1789.98) rotate(-66.64)"/>
  <polygon class="cls-6" points="1136.24 1150.38 1136.59 1151.47 1132.39 1153.23 1131.61 1153.58 1131.34 1153.65 1131.1 1153.77 1130.91 1153.26 1130.87 1153.26 1130.67 1152.72 1130.87 1152.64 1131.18 1152.49 1132 1152.18 1136.24 1150.38"/>
  <path class="cls-6" d="M1271,1383.68a3.05,3.05,0,1,1-1.63,4A3.06,3.06,0,0,1,1271,1383.68Z" transform="translate(-157.12 -226.62)"/>
  <rect class="cls-6" x="1273.08" y="1382.3" width="15.54" height="1.14" transform="translate(-591.28 374.16) rotate(-22.68)"/>
  <path class="cls-6" d="M1295.42,1383.39l-6.46-2.53-.62-.27-.31-.12-.24-.08.2-.5h0l.19-.55.2.08.34.16.75.27,5.45,2.1Z" transform="translate(-157.12 -226.62)"/>
  <path class="cls-6" d="M1273.14,1370.8a3,3,0,1,1-4,1.73A3,3,0,0,1,1273.14,1370.8Z" transform="translate(-157.12 -226.62)"/>
  <rect class="cls-6" x="1280.21" y="1369.29" width="1.14" height="15.54" transform="translate(-624.98 1842.48) rotate(-68.67)"/>
  <path class="cls-6" d="M1146.3,1379.89l-1.75,5.49c-.15-2.14-.35-4.24-.51-6.23Z" transform="translate(-157.12 -226.62)"/>
  <polygon class="cls-6" points="1010.81 1162.42 995.62 1153.37 997.61 1150.02 1008.6 1156.58 1012.52 1144.4 1016.22 1145.59 1010.81 1162.42"/>
  <polygon class="cls-6" points="1036.95 1153.11 1021.75 1144.05 1023.74 1140.71 1034.73 1147.26 1038.65 1135.08 1042.35 1136.28 1036.95 1153.11"/>
  <polygon class="cls-6" points="1068.29 1140.72 1053.1 1131.67 1055.09 1128.32 1066.08 1134.87 1070 1122.69 1073.7 1123.89 1068.29 1140.72"/>
  <polygon class="cls-6" points="1097.09 1127.53 1081.49 1119.18 1083.33 1115.74 1094.61 1121.79 1097.98 1109.44 1101.73 1110.46 1097.09 1127.53"/>
  <path class="cls-6" d="M1282.38,1341.22l-15.26-8.13,1.83-3.47,11.29,6.08.2-.74C1281.1,1337.06,1281.72,1339.12,1282.38,1341.22Z" transform="translate(-157.12 -226.62)"/>
  <path class="cls-6" d="M1161.1,1393a6.54,6.54,0,0,0-8.18-3.7,6.38,6.38,0,0,0-3.66,8.18,6.3,6.3,0,0,0,5.92,4.09,7.3,7.3,0,0,0,2.22-.39,6.39,6.39,0,0,0,3.54-3.35A6.27,6.27,0,0,0,1161.1,1393Zm-3.7,3.23a2.59,2.59,0,0,1-1.36,1.29,2.5,2.5,0,0,1-3.15-1.41,2.43,2.43,0,0,1,1.44-3.15l.85-.15a2.44,2.44,0,0,1,2.26,1.55A2.62,2.62,0,0,1,1157.4,1396.2Z" transform="translate(-157.12 -226.62)"/>
  <path class="cls-6" d="M1187.27,1383.08a6.49,6.49,0,0,0-8.15-3.69,6.34,6.34,0,0,0-3.54,3.34,6.27,6.27,0,0,0-.15,4.83,6.4,6.4,0,0,0,8.17,3.7,6.43,6.43,0,0,0,3.51-3.35A6.31,6.31,0,0,0,1187.27,1383.08Zm-3.7,3.23a2.48,2.48,0,0,1-1.37,1.29,2.45,2.45,0,0,1-3.08-3.27,2.51,2.51,0,0,1,1.37-1.29l.86-.15a2.48,2.48,0,0,1,2.29,1.56A2.54,2.54,0,0,1,1183.57,1386.31Z" transform="translate(-157.12 -226.62)"/>
  <path class="cls-6" d="M1245,1359.06a6.32,6.32,0,1,0-5.92,8.56,6.25,6.25,0,0,0,2.26-.39,6.44,6.44,0,0,0,3.54-3.34A6.22,6.22,0,0,0,1245,1359.06Zm-3.7,3.23a2.42,2.42,0,0,1-1.32,1.29,2.51,2.51,0,0,1-3.16-1.41,2.45,2.45,0,0,1,1.41-3.15l.85-.16a2.44,2.44,0,0,1,2.3,1.6A2.25,2.25,0,0,1,1241.34,1362.29Z" transform="translate(-157.12 -226.62)"/>
  <path class="cls-6" d="M1274,1345.67a6.46,6.46,0,0,0-8.14-3.7,6.33,6.33,0,0,0,2.22,12.26,5.93,5.93,0,0,0,2.22-.43,6.11,6.11,0,0,0,3.54-3.31A6.2,6.2,0,0,0,1274,1345.67Zm-3.7,3.23a2.44,2.44,0,0,1-1.36,1.28,2.48,2.48,0,0,1-3.16-1.44,2.46,2.46,0,0,1,1.45-3.12l.85-.15a2.39,2.39,0,0,1,2.26,1.56A2.42,2.42,0,0,1,1270.27,1348.9Z" transform="translate(-157.12 -226.62)"/>
  <path class="cls-6" d="M1307,1417.5l-.31,1.17-3.78-1,1.79-6.57C1305.47,1413.25,1306.25,1415.4,1307,1417.5Z" transform="translate(-157.12 -226.62)"/>
  <polygon class="cls-6" points="1123.91 1204.85 1120.15 1203.81 1124.84 1186.76 1140.4 1195.15 1138.56 1198.58 1127.29 1192.5 1123.91 1204.85"/>
  <polygon class="cls-6" points="1093.8 1219.7 1090.04 1218.67 1094.72 1201.62 1110.29 1210.01 1108.44 1213.44 1097.18 1207.37 1093.8 1219.7"/>
  <polygon class="cls-6" points="1066.05 1233.25 1062.29 1232.22 1066.98 1215.16 1082.55 1223.56 1080.7 1226.98 1069.44 1220.91 1066.05 1233.25"/>
  <polygon class="cls-6" points="1036.65 1245.75 1032.95 1244.55 1038.39 1227.73 1053.57 1236.81 1051.57 1240.15 1040.59 1233.58 1036.65 1245.75"/>
  <polygon class="cls-6" points="1005.13 1257.71 1001.47 1256.35 1007.66 1239.79 1022.42 1249.53 1020.27 1252.78 1009.6 1245.73 1005.13 1257.71"/>
  <path class="cls-6" d="M1299.86,1401.81a6.44,6.44,0,0,0-3.89-3.51,6,6,0,0,0-3.78,0l-.62.2a6.3,6.3,0,0,0-3.39,3.47,6.11,6.11,0,0,0,0,4.82,6.34,6.34,0,0,0,5.84,3.86,6.71,6.71,0,0,0,2.45-.51,6.37,6.37,0,0,0,3.35-8.33Zm-3.58,3.43a2.54,2.54,0,0,1-1.28,1.32,2.49,2.49,0,0,1-3.2-1.29,2.4,2.4,0,0,1,0-1.86,2.61,2.61,0,0,1,1.33-1.33l.93-.19a2.41,2.41,0,0,1,2.26,3.35Z" transform="translate(-157.12 -226.62)"/>
  <path class="cls-6" d="M1271,1418.51a6.33,6.33,0,1,0-11.64,5,6.34,6.34,0,0,0,5.84,3.82,6.22,6.22,0,0,0,2.49-.5,6.29,6.29,0,0,0,3.31-8.3Zm-3.54,3.39a2.36,2.36,0,0,1-1.29,1.32,2.48,2.48,0,0,1-3.23-1.28,2.51,2.51,0,0,1,1.29-3.2l1-.19a2.38,2.38,0,0,1,2.22,1.48A2.42,2.42,0,0,1,1267.43,1421.9Z" transform="translate(-157.12 -226.62)"/>
  <path class="cls-6" d="M1214.44,1444.56a6.5,6.5,0,0,0-8.33-3.35,6.43,6.43,0,0,0-3.39,3.47,6.37,6.37,0,0,0,5.88,8.68,6.19,6.19,0,0,0,2.49-.5A6.33,6.33,0,0,0,1214.44,1444.56Zm-4.87,4.71a2.49,2.49,0,0,1-3.19-1.28,2.42,2.42,0,0,1,0-1.87,2.49,2.49,0,0,1,1.32-1.33l.94-.19a2.47,2.47,0,0,1,2.26,1.48A2.45,2.45,0,0,1,1209.57,1449.27Z" transform="translate(-157.12 -226.62)"/>
  <path class="cls-6" d="M1185.63,1456.28a6.41,6.41,0,0,0-8.3-3.31,6.34,6.34,0,0,0-3.34,8.29,6.37,6.37,0,0,0,5.84,3.86,7,7,0,0,0,2.49-.51A6.38,6.38,0,0,0,1185.63,1456.28Zm-4.87,4.75a2.49,2.49,0,0,1-3.19-1.28,2.54,2.54,0,0,1,0-1.88,2.36,2.36,0,0,1,1.29-1.32l1-.19a2.4,2.4,0,0,1,2.21,1.47A2.43,2.43,0,0,1,1180.76,1461Z" transform="translate(-157.12 -226.62)"/>
  <path class="cls-6" d="M1153.62,1466.4a4.61,4.61,0,0,0-.54-1l.82,5A6.05,6.05,0,0,0,1153.62,1466.4Z" transform="translate(-157.12 -226.62)"/>
  <path class="cls-6" d="M1215.18,1174.27c-36.32,18.19-71.21,32.71-105.12,43.77-1.09-2.38-2.22-4.76-3.35-7.09,33.79-11,68.56-25.46,104.81-43.61C1212.77,1169.64,1214,1172,1215.18,1174.27Z" transform="translate(-157.12 -226.62)"/>
  <path class="cls-6" d="M1265.14,1286.41A883.18,883.18,0,0,1,1139.88,1341c-.31-2.65-.58-5.29-.9-7.9a874.53,874.53,0,0,0,123.58-54.12Z" transform="translate(-157.12 -226.62)"/>
  <path class="cls-6" d="M1175.19,1224.59a5.3,5.3,0,1,1-6.83-3.09A5.31,5.31,0,0,1,1175.19,1224.59Z" transform="translate(-157.12 -226.62)"/>
  <rect class="cls-6" x="1175" y="1228.22" width="1.99" height="27" transform="translate(-520.24 269.47) rotate(-20.71)"/>
  <path class="cls-6" d="M1186.35,1284.12a5.3,5.3,0,1,1,6.82,3.09A5.3,5.3,0,0,1,1186.35,1284.12Z" transform="translate(-157.12 -226.62)"/>
  <rect class="cls-6" x="1184.54" y="1253.48" width="1.99" height="27" transform="translate(-528.15 273.65) rotate(-20.68)"/>
  <path class="cls-6" d="M1197.44,1229.07a5.3,5.3,0,1,1-2.78-7A5.3,5.3,0,0,1,1197.44,1229.07Z" transform="translate(-157.12 -226.62)"/>
  <rect class="cls-6" x="1172.61" y="1240.96" width="27" height="1.99" transform="translate(-580.51 1614.35) rotate(-66.73)"/>
  <path class="cls-6" d="M1164.1,1279.64a5.3,5.3,0,1,1,2.77,7A5.3,5.3,0,0,1,1164.1,1279.64Z" transform="translate(-157.12 -226.62)"/>
  <rect class="cls-6" x="1161.92" y="1265.76" width="27" height="1.99" transform="translate(-609.75 1619.55) rotate(-66.73)"/>
  <path class="cls-6" d="M1210.32,1247.74a5.3,5.3,0,1,1,2.85-6.93A5.29,5.29,0,0,1,1210.32,1247.74Z" transform="translate(-157.12 -226.62)"/>
  <rect class="cls-6" x="1179.72" y="1248.16" width="27" height="1.99" transform="translate(-547.33 331.94) rotate(-22.75)"/>
  <path class="cls-6" d="M1151.21,1261a5.3,5.3,0,1,1-2.84,6.94A5.31,5.31,0,0,1,1151.21,1261Z" transform="translate(-157.12 -226.62)"/>
  <rect class="cls-6" x="1154.81" y="1258.57" width="27" height="1.99" transform="translate(-551.88 320.02) rotate(-22.63)"/>
  <path class="cls-6" d="M1206.62,1270.13a5.3,5.3,0,1,1,6.86-3A5.29,5.29,0,0,1,1206.62,1270.13Z" transform="translate(-157.12 -226.62)"/>
  <rect class="cls-6" x="1192.35" y="1245.76" width="1.99" height="27" transform="translate(-570.75 1686.42) rotate(-68.68)"/>
  <path class="cls-6" d="M1154.92,1238.58a5.3,5.3,0,1,1-6.86,3A5.29,5.29,0,0,1,1154.92,1238.58Z" transform="translate(-157.12 -226.62)"/>
  <rect class="cls-6" x="1167.2" y="1235.94" width="1.99" height="27" transform="translate(-577.48 1657.07) rotate(-68.69)"/>
  <path class="cls-6" d="M1129.45,1274.49c-.12-.58-.28-1.17-.39-1.75l.19.31A2.68,2.68,0,0,1,1129.45,1274.49Z" transform="translate(-157.12 -226.62)"/>
  <path class="cls-6" d="M1237.14,1216.67a3,3,0,0,1-1.21-1.48,2.45,2.45,0,0,1-.15-1.28C1236.2,1214.84,1236.67,1215.74,1237.14,1216.67Z" transform="translate(-157.12 -226.62)"/>
  <polygon class="cls-6" points="1086.99 1003.21 1087.26 1003.13 1087.18 1003.33 1087.11 1003.52 1086.99 1003.21"/>
  <polygon class="cls-6" points="1088.24 1003.33 1087.73 1003.52 1087.73 1003.56 1087.69 1003.56 1087.49 1003.01 1087.69 1002.94 1087.42 1002.82 1087.73 1002.04 1088.04 1002.78 1088.16 1003.09 1088.24 1003.33"/>
  <path class="cls-6" d="M1252.79,1248.6l-.81.47-.47.15h0a2.79,2.79,0,0,1-2.41-.66,2.46,2.46,0,0,1-1-1.28,3,3,0,0,1,1.21-3.59c.62,1.52,1.24,3.08,1.87,4.64A6.54,6.54,0,0,1,1252.79,1248.6Z" transform="translate(-157.12 -226.62)"/>
  <polygon class="cls-6" points="1087.49 1004.07 1087.73 1004.14 1087.38 1004.3 1087.26 1003.99 1087.49 1004.07"/>
  <polygon class="cls-6" points="1088 1004.26 1088.12 1003.99 1087.92 1004.07 1087.73 1003.56 1087.73 1003.52 1088.24 1003.33 1088.31 1003.56 1088.43 1003.87 1088.7 1004.53 1088 1004.26"/>
  <polygon class="cls-6" points="1088.78 1002.47 1088.47 1003.21 1088.31 1003.56 1088.24 1003.75 1087.73 1003.56 1087.69 1003.56 1087.49 1003.01 1087.69 1002.94 1087.42 1002.82 1087.73 1002.04 1088.04 1002.78 1088.78 1002.47"/>
  <path class="cls-6" d="M1235.25,1244.71a3,3,0,1,1,1.59,4A3,3,0,0,1,1235.25,1244.71Z" transform="translate(-157.12 -226.62)"/>
  <polygon class="cls-6" points="1087.73 1004.14 1087.38 1004.3 1087.69 1005.04 1087.34 1005.86 1082.63 1016.8 1082.08 1018.04 1081.03 1017.58 1081.58 1016.33 1086.64 1004.61 1086.71 1004.46 1086.71 1004.42 1086.95 1003.87 1087.11 1003.52 1087.18 1003.75 1087.26 1003.99 1087.49 1004.07 1087.73 1004.14"/>
  <polygon class="cls-6" points="1088.24 1003.75 1088.16 1003.99 1088.12 1003.99 1087.92 1004.07 1087.73 1003.56 1088.24 1003.75"/>
  <polygon class="cls-6" points="1089.21 1003.52 1088.43 1003.87 1088.16 1003.99 1088.12 1003.99 1087.92 1004.07 1087.73 1003.56 1087.73 1003.52 1087.49 1003.01 1087.69 1002.94 1088.04 1002.78 1088.78 1002.47 1088.47 1003.21 1089.21 1003.52"/>
  <path class="cls-6" d="M1227.83,1234a3.05,3.05,0,1,1-1.64,4A3,3,0,0,1,1227.83,1234Z" transform="translate(-157.12 -226.62)"/>
  <polygon class="cls-6" points="1087.73 1004.14 1087.38 1004.3 1086.76 1004.57 1086.64 1004.61 1074.88 1009.52 1073.59 1010.06 1073.17 1009.01 1074.42 1008.5 1086.21 1003.56 1086.29 1003.52 1086.99 1003.21 1087.26 1003.13 1087.18 1003.33 1087.11 1003.52 1087.18 1003.75 1087.26 1003.99 1087.49 1004.07 1087.73 1004.14"/>
  <polygon class="cls-6" points="1088.43 1003.87 1088.7 1004.53 1088 1004.26 1088.12 1003.99 1087.92 1004.07 1087.73 1003.56 1087.73 1003.52 1087.92 1003.01 1088.16 1003.09 1088.47 1003.21 1089.21 1003.52 1088.43 1003.87"/>
  <path class="cls-6" d="M1230,1221.08a3,3,0,1,1-3.94,1.73A3,3,0,0,1,1230,1221.08Z" transform="translate(-157.12 -226.62)"/>
  <polygon class="cls-6" points="1087.18 1003.33 1087.11 1003.52 1087.18 1003.75 1087.26 1003.99 1086.95 1003.87 1086.33 1003.6 1086.21 1003.56 1074.3 998.89 1073.05 998.42 1073.44 997.37 1074.72 997.88 1085.67 1002.12 1085.67 1002.16 1086.71 1002.55 1086.99 1003.21 1087.26 1003.13 1087.18 1003.33"/>
  <polygon class="cls-6" points="1087.92 1003.01 1087.73 1003.52 1087.73 1003.56 1087.69 1003.56 1087.49 1003.01 1087.69 1002.94 1087.92 1003.01"/>
  <path class="cls-6" d="M1130.19,1222.47l-5.46,16.86-7.51-4.48c-.74-2-1.56-4-2.41-6l7.75,4.63,3.89-12.18Z" transform="translate(-157.12 -226.62)"/>
  <polygon class="cls-6" points="993.77 1003.39 978.57 994.33 980.56 990.99 991.56 997.54 995.47 985.36 999.18 986.55 993.77 1003.39"/>
  <polygon class="cls-6" points="1025.11 991 1009.93 981.95 1011.92 978.6 1022.91 985.15 1026.83 972.97 1030.53 974.16 1025.11 991"/>
  <polygon class="cls-6" points="1053.91 977.8 1038.32 969.46 1040.16 966.02 1051.44 972.06 1054.8 959.71 1058.56 960.74 1053.91 977.8"/>
  <path class="cls-6" d="M1144.08,1233.38a6.45,6.45,0,0,0-8.14-3.7,6.3,6.3,0,0,0-3.69,8.14,6.39,6.39,0,0,0,5.92,4.12,6.51,6.51,0,0,0,2.26-.42,6.26,6.26,0,0,0,3.5-3.32A6.08,6.08,0,0,0,1144.08,1233.38Zm-3.69,3.23a2.46,2.46,0,0,1-1.37,1.28,2.51,2.51,0,0,1-3.11-1.44,2.47,2.47,0,0,1,0-1.87,2.3,2.3,0,0,1,1.37-1.24l.86-.16a2.46,2.46,0,0,1,2.29,1.56A2.38,2.38,0,0,1,1140.39,1236.61Z" transform="translate(-157.12 -226.62)"/>
  <path class="cls-6" d="M1201.9,1209.35a6.51,6.51,0,0,0-8.17-3.7,6.34,6.34,0,0,0,2.25,12.27,6.22,6.22,0,0,0,2.22-.43,6.15,6.15,0,0,0,3.55-3.31A6.46,6.46,0,0,0,1201.9,1209.35Zm-3.7,3.24a2.58,2.58,0,0,1-1.36,1.28,2.51,2.51,0,0,1-3.15-1.44,2.42,2.42,0,0,1,1.4-3.12l.85-.15a2.45,2.45,0,0,1,2.3,1.56A2.52,2.52,0,0,1,1198.2,1212.59Z" transform="translate(-157.12 -226.62)"/>
  <path class="cls-6" d="M1230.79,1196a6.43,6.43,0,0,0-6.5-4,6.3,6.3,0,0,0,.58,12.58,6.48,6.48,0,0,0,2.26-.39,5.53,5.53,0,0,0,2.57-1.91,5.83,5.83,0,0,0,.94-1.4A6.28,6.28,0,0,0,1230.79,1196Zm-3.7,3.23a2.33,2.33,0,0,1-1.36,1.25,2.43,2.43,0,0,1-1.71-4.55l.85-.16a2.45,2.45,0,0,1,1.87.89l0,0,.39.66.08.24A2.34,2.34,0,0,1,1227.09,1199.19Z" transform="translate(-157.12 -226.62)"/>
  <polygon class="cls-6" points="1080.73 1055.12 1076.97 1054.09 1081.66 1037.04 1097.23 1045.43 1095.38 1048.85 1084.12 1042.78 1080.73 1055.12"/>
  <polygon class="cls-6" points="1050.62 1069.98 1046.87 1068.95 1051.55 1051.9 1067.12 1060.29 1065.27 1063.71 1054.01 1057.64 1050.62 1069.98"/>
  <polygon class="cls-6" points="1022.87 1083.52 1019.12 1082.49 1023.8 1065.44 1039.37 1073.83 1037.52 1077.26 1026.26 1071.19 1022.87 1083.52"/>
  <polygon class="cls-6" points="993.47 1096.03 989.77 1094.83 995.22 1078 1010.39 1087.09 1008.39 1090.43 997.41 1083.86 993.47 1096.03"/>
  <path class="cls-6" d="M1251.51,1249.22l.47-.15.81-.47a6.54,6.54,0,0,0-1.67-.27,6.16,6.16,0,0,0-2.06.23l-.67.24a6.2,6.2,0,0,0-3.38,3.42,6.37,6.37,0,0,0,0,4.87,6.3,6.3,0,0,0,5.84,3.81,6.16,6.16,0,0,0,4.44-1.86C1254.07,1255.77,1252.79,1252.46,1251.51,1249.22Zm1.63,6.27a2.45,2.45,0,0,1-4.51,0,2.24,2.24,0,0,1,0-1.83,2.41,2.41,0,0,1,1.28-1.36l.93-.2a2.42,2.42,0,0,1,2.26,1.48A2.57,2.57,0,0,1,1253.14,1255.49Z" transform="translate(-157.12 -226.62)"/>
  <path class="cls-6" d="M1227.83,1268.77a6.45,6.45,0,0,0-8.33-3.31,6.34,6.34,0,0,0,2.49,12.15,6.79,6.79,0,0,0,2.49-.51,6.25,6.25,0,0,0,3.39-3.46A6.32,6.32,0,0,0,1227.83,1268.77Zm-3.58,3.39a2.44,2.44,0,0,1-1.28,1.36,2.49,2.49,0,0,1-3.2-1.29,2.4,2.4,0,0,1,1.29-3.19l.93-.19a2.46,2.46,0,0,1,2.26,1.48A2.51,2.51,0,0,1,1224.25,1272.16Z" transform="translate(-157.12 -226.62)"/>
  <path class="cls-6" d="M1171.26,1294.81a6.44,6.44,0,0,0-8.33-3.3,6.36,6.36,0,0,0-3.31,8.29,6.34,6.34,0,0,0,5.8,3.86,6.07,6.07,0,0,0,2.49-.55A6.31,6.31,0,0,0,1171.26,1294.81Zm-4.86,4.76a2.49,2.49,0,0,1-3.2-1.29,2.43,2.43,0,0,1,0-1.87,2.35,2.35,0,0,1,1.32-1.32l.94-.19a2.4,2.4,0,0,1,2.26,1.48A2.46,2.46,0,0,1,1166.4,1299.57Z" transform="translate(-157.12 -226.62)"/>
  <path class="cls-6" d="M1142.45,1306.58a6.39,6.39,0,0,0-7.55-3.59c.23,1.28.42,2.61.62,3.89l.16-.07a2.62,2.62,0,0,1,1-.19,2.43,2.43,0,0,1,1,4.66,2.13,2.13,0,0,1-1.48.12c.23,1.32.43,2.65.59,4a5.85,5.85,0,0,0,2.41-.5A6.34,6.34,0,0,0,1142.45,1306.58Z" transform="translate(-157.12 -226.62)"/>
  <path class="cls-7" d="M751.45,1135.33c-3.24,14.89,125,28.42,137.48,28.71,76,1.84,160.79,2.12,235.24-15.31,50-11.71,104.26-60.87,58.5-111.12-41.05-45.08-117.65-33-171.9-33.12-55.23-.13-129-4.47-178.93,24.25-18.71,10.77-22.2,32-36.74,48.21C778.74,1095.16,757,1109.9,751.45,1135.33Z" transform="translate(-157.12 -226.62)"/>
  <path class="cls-8" d="M907.25,1118.29c45.09.31,91.51-1.71,136.16-8.23,36.88-5.39,73.64-15.14,105.26-35.55a243.38,243.38,0,0,0,38.61-31.37c-1.42-1.84-2.92-3.68-4.61-5.53-41.05-45.08-117.65-33-171.9-33.12-55.23-.13-129-4.47-178.93,24.25-18.71,10.77-22.2,32-36.74,48.21-5.24,5.84-11,11.32-16.69,16.92C818.2,1113,863.49,1118,907.25,1118.29Z" transform="translate(-157.12 -226.62)"/>
  <path class="cls-1" d="M670.83,472.54l-.42-.58.7-.08.28-.65.43.58c13.54-1.33,122.25-8.17,187.62,105.1l-70.59,52.45-1,.72-70.59,52.44C627.71,587.23,665.65,485.11,670.83,472.54Z" transform="translate(-157.12 -226.62)"/>
  <path class="cls-2" d="M709,523.42l-.28-.39.42,0,.14-.4.29.39c8.25-.23,74.67.41,120,76.11L788.64,629.5l-.56.43-40.92,30.39C687.78,595,706.35,531.26,709,523.42Z" transform="translate(-157.12 -226.62)"/>
  <path class="cls-1" d="M1250.19,472.54l.42-.58-.7-.08-.27-.65-.43.58c-13.54-1.33-122.25-8.17-187.63,105.1l70.59,52.45,1,.72,70.59,52.44C1293.31,587.23,1255.37,485.11,1250.19,472.54Z" transform="translate(-157.12 -226.62)"/>
  <path class="cls-2" d="M1212.07,523.42l.28-.39-.42,0-.14-.4-.29.39c-8.25-.23-74.67.41-120,76.11l40.91,30.39.57.43,40.91,30.39C1233.25,595,1214.67,531.26,1212.07,523.42Z" transform="translate(-157.12 -226.62)"/>
  <path class="cls-1" d="M1276.65,758.74c-40.93-142.09-168.82-226.85-314.21-228.33v-.07c-.65,0-1.29,0-1.93,0s-1.28,0-1.93,0v.07c-145.39,1.48-273.28,86.24-314.2,228.33-27.93,96.94-11,211.3,81.7,266.34,46.09,27.34,94.82,47.69,148.13,54.85,6,.8,74,9.61,86.3,7.77,12.34,1.84,80.32-7,86.31-7.77,53.31-7.16,102-27.51,148.12-54.85C1287.67,970,1304.57,855.68,1276.65,758.74Z" transform="translate(-157.12 -226.62)"/>
  <path class="cls-2" d="M1235.29,743.08c-36.81-26.36-81.79-35.29-126.13-26-46.55,9.8-97.93,36-114.54,84.17-4.51,13.06-10.12,54.45-32.08,47.62-12.09-3.75-22.76-21-26.38-32.28-6.12-19.09-5-42.26-15.21-59.86C899.3,719.3,838.28,711.44,799,715.06c-53.87,5-125.42,31.49-162.57,78.49-15,88.22,7.79,183,89.62,231.53,46.09,27.34,94.82,47.69,148.13,54.85,6,.8,74,9.61,86.3,7.77,12.34,1.84,80.32-7,86.31-7.77,53.31-7.16,102-27.51,148.12-54.85,79.91-47.43,103.48-138.91,90.6-225.34C1272.18,778,1256.24,758.09,1235.29,743.08Z" transform="translate(-157.12 -226.62)"/>
  <path class="cls-9" d="M974.63,810.32c9.65,1.35,20.87,5.22,27.46,12.95,15.46,18.19-17,44.41-32.41,47.53-2.76.56-6,2.18-9.17,2-3.17.17-6.41-1.45-9.16-2-15.42-3.12-47.89-29.34-32.42-47.53,6.6-7.73,17.81-11.6,27.46-12.95C946.39,810.32,960.51,807.68,974.63,810.32Z" transform="translate(-157.12 -226.62)"/>
  <path class="cls-10" d="M1052,823.56a29.1,29.1,0,0,1,11.58-14.06,32.19,32.19,0,0,1,33.56,0,29.07,29.07,0,0,1,11.59,14.06,7.33,7.33,0,1,0,13.6-5.45,43.69,43.69,0,0,0-17.4-21,46.77,46.77,0,0,0-49.13,0,43.66,43.66,0,0,0-17.4,21,7.32,7.32,0,1,0,13.6,5.44Z" transform="translate(-157.12 -226.62)"/>
  <path class="cls-10" d="M812.26,823.56a29,29,0,0,1,11.59-14.06,32.17,32.17,0,0,1,33.55,0A29.07,29.07,0,0,1,869,823.56a7.32,7.32,0,0,0,13.6-5.44,43.77,43.77,0,0,0-17.4-21,46.77,46.77,0,0,0-49.13,0,43.76,43.76,0,0,0-17.41,21,7.33,7.33,0,0,0,13.61,5.45Z" transform="translate(-157.12 -226.62)"/>
  <path class="cls-6" d="M987.18,893.1c.41,5.37,0,18.58.09,23.95.07,6.39-4,9.24-9.9,9.32-3.85.06-39.2,3.41-40.29-.06-2.29-7.26-3.07-19.92-1.15-30.35,0,0,17.51-3.93,25.71-21.57C961.64,874.39,964.26,893.68,987.18,893.1Z" transform="translate(-157.12 -226.62)"/>
  <path class="cls-9" d="M913,895.76a38,38,0,0,0,17.81,4.49,36.7,36.7,0,0,0,23.08-8.14,35.53,35.53,0,0,0,12.69-21.61,3.86,3.86,0,0,0-7.6-1.33,25.89,25.89,0,0,0-.4,4.4,20.25,20.25,0,0,0,3.06,10.88c2.91,4.62,7.46,7.74,12.47,9.73a44.19,44.19,0,0,0,16,2.89,40.56,40.56,0,0,0,14.15-2.39,3.86,3.86,0,0,0-2.75-7.21,32.8,32.8,0,0,1-11.4,1.88c-6,0-12.36-1.42-16.78-4.14a15.28,15.28,0,0,1-5.14-4.87,12.3,12.3,0,0,1-1.87-6.77,18,18,0,0,1,.28-3.07,3.84,3.84,0,0,0-.65-2.88,3.86,3.86,0,0,0-7,1.55,27.76,27.76,0,0,1-9.94,16.94,29,29,0,0,1-18.23,6.43,30.15,30.15,0,0,1-14.2-3.6,3.86,3.86,0,0,0-3.61,6.82Z" transform="translate(-157.12 -226.62)"/>
  <path class="cls-11" d="M1158.06,852.84c0,11.94-19.26,21.62-43,21.62s-43-9.68-43-21.62,19.26-21.63,43-21.63S1158.06,840.89,1158.06,852.84Z" transform="translate(-157.12 -226.62)"/>
  <path class="cls-11" d="M845.65,852.84c0,11.94-19.26,21.62-43,21.62s-43-9.68-43-21.62,19.25-21.63,43-21.63S845.65,840.89,845.65,852.84Z" transform="translate(-157.12 -226.62)"/>
  <path class="cls-12" d="M1274.21,740.31c-.37-14.2-8.73-27.28-14.92-39.72a512.57,512.57,0,0,0-27.86-48.53c-19.36-30.06-43.56-56.15-73.37-76-56.32-37.5-126.1-50.53-192.61-53.1-77-3-147.75,21.26-211.33,63.75C724.53,606.49,699,632.06,677,659.84a271.88,271.88,0,0,0-30.28,48.37c-6.6,13.33-17.08,31.36-7.53,44.89,3.09,4.37,11.69,3.85,15.57,1,12.25-9,14.94-22.35,20.88-35.88s13.81-26.34,22.11-38.63c18.78-27.86,43.25-51.83,69.6-72.49,57.33-45,125.22-70.08,198.14-68.59,64.44,1.32,131,16.62,184,54.59,26.92,19.29,47.76,45.21,66,72.52,16.41,24.54,28.81,56.31,51.53,75.65C1268.22,742.34,1274.29,743,1274.21,740.31Z" transform="translate(-157.12 -226.62)"/>
  <path class="cls-4" d="M693.76,871.92c-7.44,30.79-34.94,77.32-68.25,56.47-38.45-24.06-46.63-78.77-49.18-111.4-3.13-40.07,24-126.32,75.48-120.26C693.19,701.6,705.08,825,693.76,871.92Z" transform="translate(-157.12 -226.62)"/>
  <path class="cls-12" d="M651.81,696.73a42.61,42.61,0,0,0-7.88-.16c34.44,34.17,48.7,92.09,38.87,143.15-8.8,45.65-42.8,80.11-78.58,68.68a79.2,79.2,0,0,0,21.29,20c33.31,20.85,60.81-25.68,68.25-56.47C705.08,825,693.19,701.6,651.81,696.73Z" transform="translate(-157.12 -226.62)"/>
  <path class="cls-4" d="M1221.53,871.92c7.44,30.79,34.94,77.32,68.25,56.47,38.45-24.06,46.64-78.77,49.19-111.4,3.12-40.07-24-126.32-75.48-120.26C1222.1,701.6,1210.21,825,1221.53,871.92Z" transform="translate(-157.12 -226.62)"/>
  <path class="cls-12" d="M1263.49,696.73a42.58,42.58,0,0,1,7.88-.16c-34.44,34.17-48.71,92.09-38.87,143.15,8.79,45.65,42.8,80.11,78.57,68.68a78.91,78.91,0,0,1-21.29,20c-33.31,20.85-60.81-25.68-68.25-56.47C1210.21,825,1222.1,701.6,1263.49,696.73Z" transform="translate(-157.12 -226.62)"/>
  <path class="cls-6" d="M919.75,711.72c2.27,6.18,3.93,13.62,7.52,19.14.49.74,3.67,1,3.46-.23-.51-3-2-5.72-3.22-8.44l-4.89-10.86C922.23,710.48,919.36,710.64,919.75,711.72Z" transform="translate(-157.12 -226.62)"/>
  <path class="cls-6" d="M943.23,696.67l-.3,10.61c-.1,3.45-.87,7.5.29,10.8.25.71,2.4.71,2.65,0,1-2.93.42-6.34.34-9.4q-.18-6-.34-12C945.84,695.76,943.25,695.76,943.23,696.67Z" transform="translate(-157.12 -226.62)"/>
  <path class="cls-6" d="M958.74,668c-.25,3-.45,6-.52,9-.06,2.69-.62,5.67.52,8.15.34.74,2.42.74,2.76,0,1.14-2.48.58-5.46.52-8.15-.07-3-.27-6-.52-9C961.42,667.07,958.82,667.07,958.74,668Z" transform="translate(-157.12 -226.62)"/>
  <path class="cls-6" d="M984.65,696.67l-.24,9c-.07,2.73-.5,5.53.5,8.12.25.62,2.1.62,2.34,0,1-2.59.58-5.39.5-8.12l-.24-9C987.48,695.69,984.68,695.69,984.65,696.67Z" transform="translate(-157.12 -226.62)"/>
  <path class="cls-6" d="M967,715.77c0,2.66-.05,5.31-.08,8,0,2.94-.43,6.15.19,9,.12.58,1.53.58,1.65,0,.55-2.55.23-5.34.2-8l-.09-9C968.83,715.13,967,715.13,967,715.77Z" transform="translate(-157.12 -226.62)"/>
  <path class="cls-6" d="M945.66,745.69c1.38,4.09,1.76,8.36,2.59,12.57.44,2.19,1.52,4.26,3.84,4.65a1.24,1.24,0,0,0,1.15-.32c.86-1.28-1.18-5.62-1.53-7a66.79,66.79,0,0,0-3.08-10.28C948.24,744.39,945.28,744.55,945.66,745.69Z" transform="translate(-157.12 -226.62)"/>
  <path class="cls-6" d="M980.87,743.37c-.72,4.28-1.49,8.56-2.24,12.84-.41,2.32-1.12,4.29.06,6.38a1.31,1.31,0,0,0,1.8,0c1.26-2,1.26-4,1.53-6.38.5-4.28,1-8.56,1.49-12.84C983.6,742.5,981,742.44,980.87,743.37Z" transform="translate(-157.12 -226.62)"/>
  <path class="cls-6" d="M1004.22,737.88a35.24,35.24,0,0,0-3.26,6.2c-1.05,2.6-2.44,6-2.2,8.84.09,1.1,2.7,1,3.13.2,1.39-2.58,1.53-5.79,2.32-8.61a29.87,29.87,0,0,1,2.67-6.27C1007.37,737.34,1004.7,737.16,1004.22,737.88Z" transform="translate(-157.12 -226.62)"/>
  <path class="cls-6" d="M1013.09,705.16c-.25,2.79-1.85,5.74-2.89,8.29-.9,2.21-2.21,4.25-1.58,6.57.15.54,1.18.5,1.53.2,2-1.7,2.62-3.8,3.5-6.31.94-2.69,2.42-5.85,2.52-8.75C1016.2,704.12,1013.18,704.09,1013.09,705.16Z" transform="translate(-157.12 -226.62)"/>
  <path class="cls-6" d="M1002.71,672.26c-.25,2.79-1.86,5.74-2.89,8.29-.9,2.21-2.22,4.25-1.59,6.57.15.54,1.19.5,1.54.21,2-1.71,2.62-3.81,3.49-6.31,1-2.7,2.43-5.86,2.53-8.76C1005.82,671.22,1002.8,671.19,1002.71,672.26Z" transform="translate(-157.12 -226.62)"/>
  <path class="cls-6" d="M1041.81,705.16c-.49,5.27-4.37,9.85-6.7,14.42-1,2-3.61,6.19-.21,7.23.34.1,1.27.15,1.45-.29,1.24-3,2.37-5.95,3.81-8.91,1.86-3.83,4.35-8.06,4.4-12.45C1044.57,704.23,1041.89,704.21,1041.81,705.16Z" transform="translate(-157.12 -226.62)"/>
  <path class="cls-6" d="M1028.77,664.64c-2.35,5.61-6.21,13-5.18,19.3.16,1,2.64,1,2.86,0,.68-3.12.86-6.23,1.73-9.35a98.19,98.19,0,0,1,3.46-9.56C1032.05,664,1029.14,663.76,1028.77,664.64Z" transform="translate(-157.12 -226.62)"/>
  <path class="cls-6" d="M1057.32,570.2c-2.35,5.61-6.2,13-5.18,19.29.16,1,2.65,1,2.86,0,.69-3.11.87-6.23,1.73-9.34a99.33,99.33,0,0,1,3.46-9.57C1060.61,569.52,1057.7,569.31,1057.32,570.2Z" transform="translate(-157.12 -226.62)"/>
  <path class="cls-6" d="M1003,637.25a71.68,71.68,0,0,1-1,8.52c-.7,4-2.39,8.65-1.5,12.7.16.72,1.83.74,2.16.14,3.1-5.74,3-14.89,2.74-21.36C1005.43,636.42,1003.08,636.41,1003,637.25Z" transform="translate(-157.12 -226.62)"/>
  <path class="cls-6" d="M979.57,622.39l-.42,11.67c-.14,3.87-.75,8.17.63,11.83.22.59,2,.59,2.22,0,1.21-3.22.81-6.83.68-10.23q-.24-6.64-.47-13.27C982.18,621.48,979.6,621.48,979.57,622.39Z" transform="translate(-157.12 -226.62)"/>
  <path class="cls-6" d="M946,624.66c1.92,5.7-.74,16,5.49,19.36.35.18,2.33.25,1.93-.56-.69-1.37-1.66-2.5-2.28-3.93a20.5,20.5,0,0,1-1.11-5.71c-.36-3.24-.61-6.4-1.8-9.46C948,623.68,945.74,623.81,946,624.66Z" transform="translate(-157.12 -226.62)"/>
  <path class="cls-6" d="M917.48,650.13c2.36,6.8,3.43,15.49,7.84,21.22.34.44,2.15.68,2.16-.15.06-4-2-7.79-3.49-11.45-1.37-3.33-2.77-6.65-4.29-9.92C919.4,649.16,917.18,649.28,917.48,650.13Z" transform="translate(-157.12 -226.62)"/>
  <path class="cls-6" d="M896.12,673.33a21.9,21.9,0,0,0,1.65,7.74c.82,2.13,2.11,5,4.53,5.59.63.15,1.94.23,2.15-.6s-.58-1.28-1-1.89a26.77,26.77,0,0,1-1.74-2.92,20,20,0,0,1-2.19-7.92C899.47,672.14,896.11,672.16,896.12,673.33Z" transform="translate(-157.12 -226.62)"/>
  <path class="cls-6" d="M919.92,613.9c-.12,4-.62,10.29,3.06,13,.35.25,1.68.44,1.74-.23.18-1.94-1.22-4-1.66-5.95a35.88,35.88,0,0,1-.61-6.79C922.42,613,920,613,919.92,613.9Z" transform="translate(-157.12 -226.62)"/>
  <path class="cls-6" d="M956.21,586.31c-.19,2.63-.37,5.27-.56,7.9-.16,2.32-.68,5,.18,7.19.35.9,3,.9,3.4,0,.85-2.23.33-4.87.17-7.19-.18-2.63-.37-5.27-.55-7.9C958.79,585.4,956.27,585.4,956.21,586.31Z" transform="translate(-157.12 -226.62)"/>
  <path class="cls-6" d="M992.05,586.31l-.24,10.29c-.07,3-.81,6.34.84,9a1.77,1.77,0,0,0,2.44,0c1.65-2.64.9-6,.84-9q-.12-5.15-.25-10.29C995.65,585.06,992.08,585.06,992.05,586.31Z" transform="translate(-157.12 -226.62)"/>
  <path class="cls-6" d="M1031.21,611.56a82.62,82.62,0,0,1-5.77,10.09c-1.75,2.74-4.35,5.89-4.57,9.23-.07,1.17,2.57.76,3,.2,2.15-2.6,3.49-6,5.19-8.94A82.26,82.26,0,0,0,1034.4,612C1034.87,610.82,1031.65,610.6,1031.21,611.56Z" transform="translate(-157.12 -226.62)"/>
  <path class="cls-6" d="M1054.68,632.8c-2.84,5.93-9.1,10.6-10.92,16.91-.47,1.63,3.38,1.64,4,.54,1.6-2.7,3-5.47,4.73-8.09a46.28,46.28,0,0,0,5.13-9C1058.09,632.1,1055.1,631.92,1054.68,632.8Z" transform="translate(-157.12 -226.62)"/>
  <path class="cls-6" d="M1067.65,660.39c-2.87,4.18-5.67,8.35-8.32,12.67-.76,1.25,3.3,1.74,4,.54,2.57-4.2,4.93-8.47,7.26-12.81C1071.18,659.76,1068.19,659.61,1067.65,660.39Z" transform="translate(-157.12 -226.62)"/>
  <path class="cls-6" d="M984.59,775c-2.86,4.17-5.67,8.34-8.31,12.66-.77,1.26,3.3,1.74,4,.55,2.57-4.2,4.93-8.47,7.26-12.81C988.12,774.37,985.13,774.22,984.59,775Z" transform="translate(-157.12 -226.62)"/>
  <path class="cls-6" d="M1078.09,675.25c-2.53,3.51-5.25,6.83-7.91,10.22a17.81,17.81,0,0,1-3.92,4c-1.36.9,1.1.06,0,.22-.35,0-1.11.3-1,.81s.48.64.89.76c3.61,1,6.06-1.61,8.16-4.12,2.82-3.38,4.73-7.61,6.71-11.52C1081.48,674.6,1078.61,674.54,1078.09,675.25Z" transform="translate(-157.12 -226.62)"/>
  <path class="cls-6" d="M1023.58,736.62a48.94,48.94,0,0,1-2.77,7.32c-1.46,3-4.7,6.76-4,10.22.18.9,1.83.67,2.36.31,5.36-3.59,6.75-11.6,7.37-17.65C1026.59,735.88,1023.82,735.81,1023.58,736.62Z" transform="translate(-157.12 -226.62)"/>
  <path class="cls-6" d="M873.51,698.92c2.21,4.21,4.18,9.62,7.7,12.91.33.31,2.41.5,2.25-.3-.45-2.2-2.07-4.32-3.35-6.15l-4.69-6.71C875.07,698.17,873.15,698.25,873.51,698.92Z" transform="translate(-157.12 -226.62)"/>
  <path class="cls-6" d="M840,653.4c1.79,5.12,1.49,19.59,9.54,19.33.32,0,.87-.07.94-.46.15-.91-1-1.88-1.42-2.61a21.39,21.39,0,0,1-2-4.72c-1.32-4-1.92-8.13-3.53-12C843.06,651.86,839.54,652.07,840,653.4Z" transform="translate(-157.12 -226.62)"/>
  <path class="cls-6" d="M855.58,587.37c0,4.19,1.48,11.54,6,13.09.25.08,1.28.12,1.24-.35-.11-1.53-1.74-3.42-2.44-4.78a19.92,19.92,0,0,1-2.31-8C858.05,586.49,855.59,586.5,855.58,587.37Z" transform="translate(-157.12 -226.62)"/>
  <path class="cls-6" d="M962.31,773.56c0,2.1.14,4.2.29,6.3.2,2.81-.08,6.18,1.95,8.29a1.27,1.27,0,0,0,1.61-.1c1.54-2.23.41-5.62.11-8.19-.24-2.09-.48-4.19-.55-6.3C965.68,772.38,962.32,772.39,962.31,773.56Z" transform="translate(-157.12 -226.62)"/>
  <path class="cls-6" d="M886.17,616.19c2,5.66,4.25,12.56,8.4,17,.25.27,1.4.32,1.43-.19.16-2.84-1.27-5.21-2.45-7.73-1.5-3.19-3.3-6.24-4.83-9.42C888.36,615.1,885.83,615.22,886.17,616.19Z" transform="translate(-157.12 -226.62)"/>
  <path class="cls-6" d="M865,637.47c2.69,4.68,4.1,11.6,8.53,14.89.36.27,1.93.5,2-.26.06-2.9-2.56-6.06-3.85-8.61-1.09-2.17-2.09-4.39-3.34-6.46C867.74,636.06,864.42,636.4,865,637.47Z" transform="translate(-157.12 -226.62)"/>
  <path class="cls-6" d="M901.7,579.94c.14,3.38,2,6.75,3.41,9.74s2.59,6.94,4.69,9.5c.38.47,1.66.6,2,0,1.17-2-1.8-5.78-2.68-7.51-1.8-3.53-4.51-7.68-4.79-11.73C904.27,579,901.66,579.05,901.7,579.94Z" transform="translate(-157.12 -226.62)"/>
  <path class="cls-6" d="M941.35,550.23a39.19,39.19,0,0,0,.89,8.36c.65,3.47.09,7.7,1.62,10.83.17.37,1.2.38,1.38,0,2.46-5.39-2.3-13.5-2.68-19.19C942.53,549.81,941.36,549.81,941.35,550.23Z" transform="translate(-157.12 -226.62)"/>
  <path class="cls-6" d="M987.24,545.79c-2.09,5.24-4.73,14.11-2,19.41a1.23,1.23,0,0,0,1.7,0c1.29-2.5.94-5.53,1.06-8.3a36.38,36.38,0,0,1,2.12-10.72C990.5,545.09,987.59,544.91,987.24,545.79Z" transform="translate(-157.12 -226.62)"/>
  <path class="cls-6" d="M1034,573.39c-2.14,3.45-4.32,6.89-6.17,10.51-1.1,2.17-2.24,4.41-1.2,6.78.26.57,1.61.45,1.91,0,1.3-1.93,1.75-4.19,2.66-6.32a116.2,116.2,0,0,1,5.56-10.6C1037.29,572.84,1034.5,572.6,1034,573.39Z" transform="translate(-157.12 -226.62)"/>
  <path class="cls-6" d="M1070.46,603.12c-3,3.58-6.45,6.85-9.64,10.3-2.12,2.3-5.79,5.64-5.59,9,0,.63,1.43.54,1.74.23,2.77-2.74,4.67-6.46,7.28-9.42,2.91-3.26,6-6.35,8.76-9.74C1073.56,602.8,1071,602.46,1070.46,603.12Z" transform="translate(-157.12 -226.62)"/>
  <path class="cls-6" d="M1095,620.36c-2,2.75-4.42,5.29-6.64,7.89a26.1,26.1,0,0,0-2.82,3.23c-.36.61,0,1.13-.39,1.68s1.22.56,1.5.31l.78-.68-1.09.21c2.52.39,4.22-2.63,5.62-4.26a42.61,42.61,0,0,0,5.69-8C1098.11,619.76,1095.45,619.7,1095,620.36Z" transform="translate(-157.12 -226.62)"/>
  <path class="cls-6" d="M1106.85,649.82c-1.35,2.17-2.74,4.31-4.29,6.35-1.71,2.24-4.5,4-5.88,6.41-.41.72,1.46.64,1.75.5,4.86-2.39,8.18-8.46,10.86-12.93C1109.76,649.37,1107.3,649.11,1106.85,649.82Z" transform="translate(-157.12 -226.62)"/>
  <path class="cls-6" d="M1106.85,584c-1.35,2.18-2.74,4.32-4.29,6.36-1.71,2.24-4.5,4-5.88,6.41-.41.72,1.46.64,1.75.49,4.86-2.38,8.18-8.45,10.86-12.93C1109.76,583.58,1107.3,583.31,1106.85,584Z" transform="translate(-157.12 -226.62)"/>
  <g>
    <path class="cls-4" d="M157.15,573l.33-4.16,3.13-3.66a14,14,0,0,1,7.54-4.7c2.92-.69,5.26-.25,7,1.29l.82.43c3.48-3.52,7.22-7.38,11.22-11.47,4.69-4.78,9.47-9.51,14.2-13.87,4.44-4.09,8.84-8,12.88-11.73s7.32-6.88,10.26-9.76c3.22-3.16,6.18-6,8.78-8.3s4.43-3.71,5.64-4.71l1.58-1.31a13.63,13.63,0,0,1,7.93-3.27,7.32,7.32,0,0,1,6.57,2.54,7.39,7.39,0,0,1,1.15,6.94,13.64,13.64,0,0,1-4.67,7.1c-.63.51-.94.77-1.56,1.29-1,.86-2.86,2.28-5.12,4.27s-4.64,4.4-7.55,7.25c-3.18,3.11-6.9,6.59-11.11,10.46l-13.07,12c-4.5,4.15-8.87,8.48-13.1,12.71-3.68,3.69-7.14,7.07-10.16,10.13,2.83,2.14,5.44,4.31,7.81,6.13,3.19,2.46,7,4.89,10.59,7.43s6.28,4.73,8.2,6.22,4.89,3.9,8.9,7.21,7.74,6.57,11.2,9.71l.29.32c2.11-2.36,4.37-5,6.82-7.8,3.4-3.83,7.24-7.8,11.16-11.89s7.76-7.88,11.25-11.37,6.87-6.71,9.44-9,4.71-4.28,6.83-6.06c2.29-1.91,3.43-2.87,5.73-4.77a11.81,11.81,0,0,1,7.73-3,7.72,7.72,0,0,1,6.3,2.76,7.51,7.51,0,0,1,1.35,6.64,12.12,12.12,0,0,1-4.4,6.87l-5.65,4.7c-1.95,1.63-4.06,3.6-6.31,5.61s-5.13,4.48-8.41,7.8-6.88,7.16-10.74,11.18-7.51,7.87-10.8,11.52c-2.81,3.12-5.31,6-7.52,8.43,2.52,2.44,4.88,4.75,7.1,6.82,3.38,3.17,6.44,6.26,9,8.9s5.22,5.09,7.82,7.64,5.35,5.48,8.22,8.45,5.57,5.47,7.67,7.49,3.9,3.82,5.09,5.1l9.8,10.57a7.9,7.9,0,0,1,1.92,6.56,10.7,10.7,0,0,1-3.4,6.79,10.25,10.25,0,0,1-6.87,2.93,8,8,0,0,1-6.36-2.37l-10-10.38c-1-1-2.59-2.56-4.73-4.53s-5-4.58-7.95-7.5-5.69-5.75-8.23-8.14c-2.76-2.59-5.59-5.14-8.12-7.64s-5.49-5.42-8.89-8.42-6.89-6.14-10.18-9.14-6.66-6-10.11-9-7.15-6.1-11.08-9.18-6.8-5.37-8.63-6.83-4.7-3.36-8.2-5.73-7.24-5.1-10.67-7.58c-3.05-2.22-6.31-4.62-9.73-7a12.61,12.61,0,0,1-7,2.52,7.48,7.48,0,0,1-5.82-2.06c-2.34-2.47-2.52-6-.54-10.25C157.79,577.86,156.93,575.79,157.15,573Z" transform="translate(-157.12 -226.62)"/>
    <path class="cls-4" d="M311.51,510a13.1,13.1,0,0,1,7.42-3.14,8,8,0,0,1,.91-2c1.76-3.86,5-7.92,9.44-12.13a52.12,52.12,0,0,1,12.56-9.3,58.23,58.23,0,0,1,11.09-4,34.49,34.49,0,0,1,11.42-1,36,36,0,0,1,11.14,2.74,30.74,30.74,0,0,1,9.87,6.93,29.58,29.58,0,0,1,6.52,10.75,45.35,45.35,0,0,1,2.33,12.11,59.1,59.1,0,0,1-.31,11.82,76.15,76.15,0,0,1-2.26,11.1,55.73,55.73,0,0,1-4.55,10.39c2.17.06,4.46.15,6.86.25q7.86.36,15.16.8c4.87.28,9.18.58,12.95.86s7.25.69,10.29,1c2.73.3,4.74.46,5.84.6l1.86.09a7.9,7.9,0,0,1,6.22,3.13,7.58,7.58,0,0,1,1.28,6.58,10.45,10.45,0,0,1-4.17,6.13,10.82,10.82,0,0,1-7,2.29l-2-.26c-1.45-.07-3.72-.31-6.8-.68-2.86-.35-6.11-.65-9.74-.88s-7.87-.49-12.71-.74-9.88-.37-15-.51-9.68-.18-14.07,0c-1.18.14-2.3.24-3.34.28a20,20,0,0,1-3.61,2.13c.43.59.81,1.4,1.22,2.09,1.15,1.91,2.91,3.92,4.29,5.78l12.75,17.19a7.61,7.61,0,0,1,1.15,6.64,10.82,10.82,0,0,1-4.13,6.25,10.33,10.33,0,0,1-7,2.21,7.72,7.72,0,0,1-6-3c-5.23-6.78-7.84-10.17-13.06-17-1.6-2.07-3.16-4.38-4.73-6.55l-4.72-6.57c-1.73-2.4-3.73-5.13-5.65-7.77-1.75-2.41-3.78-5-5.75-7.7s-4.11-5.56-6.42-8.56c-1.51-2-2.92-4.43-4.12-5.37-.89-.69-2.46-1.41-3.26-2.45l-1.6-2.08a22.9,22.9,0,0,1-2.5-4.14,3.32,3.32,0,0,1-1-.87q-3.15-3.63-6.12-6.58c-1.29-1.32-1.94-2-3.24-3.29a7.43,7.43,0,0,1-1.7-6.55A12,12,0,0,1,311.51,510ZM357,547.92a40.25,40.25,0,0,1,8.56-2.24q1.4-2.1,3-4.88a43.9,43.9,0,0,0,4.09-8.85,43.07,43.07,0,0,0,1.77-16.49,28.78,28.78,0,0,0-1.58-7.94,16.43,16.43,0,0,0-3.57-5.63,14.88,14.88,0,0,0-5.09-3.51,22.2,22.2,0,0,0-5.63-1.39,13.49,13.49,0,0,0-4.62.58,28,28,0,0,0-5.58,2.09,31.58,31.58,0,0,0-6.13,4.68,19.4,19.4,0,0,0-4.12,4.62,42.66,42.66,0,0,0-1.65,4.73,8.22,8.22,0,0,0-.21,3.41,16.28,16.28,0,0,0,1.32,5,56.34,56.34,0,0,0,4,4.92c2,2.58,4.33,5.4,6.58,8.44s4.42,6,6.5,8.78A37.14,37.14,0,0,1,357,547.92Z" transform="translate(-157.12 -226.62)"/>
    <path class="cls-4" d="M414.33,445.78a7.16,7.16,0,0,1-1.42-6.55,11.12,11.12,0,0,1,4.45-6.52l1.9-1.65c1.5-1.06,3.73-2.49,6.42-4.31s5.43-3.61,7.4-4.83,5.26-3.38,9.82-6.13,8.86-5.39,12.9-8,7.72-5,10.95-6.93,6.66-3.88,9.51-5.53c3-1.75,5.59-3.09,7.46-4.12,2.18-1.21,4-2.33,5.52-3.07l2.2-1.12a11.57,11.57,0,0,1,7.86-1.13,7.52,7.52,0,0,1,5.53,4.08,7.61,7.61,0,0,1-.08,6.86,11.56,11.56,0,0,1-5.52,5.59l-2.18,1.1c-1.29.65-3,1.44-4.82,2.46s-4.22,2.59-7,4.13c-2.63,1.45-5.69,3.15-8.89,5.19s-6.91,4.33-11.09,6.87-8.5,5.32-12.9,8l-9.68,6c-1.94,1.21-4.32,2.67-6.83,4.48L433.72,442l2.82,2.65a63.57,63.57,0,0,1,6.28,6.44c1.4,1.71,3.82,4.74,7.24,8.67s7,7.92,10.42,12.13l.22.38.68-.39c1.59-1.09,3.64-2.53,6.15-4.3s5.27-3.76,8.26-5.92,6.48-4.35,9.68-6.35,6.17-3.85,9.26-5.49l6.48-3.44,2.45-1.53a10.75,10.75,0,0,1,7.79-1.45,7.85,7.85,0,0,1,5.63,3.86,7.7,7.7,0,0,1,.37,6.68,10.91,10.91,0,0,1-4.89,5.73c-1.06.65-1.59,1-2.64,1.63-1.83,1-4.19,2.2-7.07,3.74-2.43,1.3-5.23,2.81-8.08,4.6s-5.78,3.77-8.41,5.63c-2.79,2-5.66,4.06-8.48,6-2.4,1.67-4.38,3.09-5.95,4.16,2.63,3.2,4.91,6.23,6.89,8.89,2.24,3,4.37,5.94,6.21,8.27,1.68,2.13,3.3,3.9,4.13,5.18.6.93,1.57,2.39,2.93,4.11.72.93,1.37,1.74,2,2.41l4.35-2.47c2.75-1.56,5.76-3.28,9-5.15l10.8-6.26q5.94-3.45,12.15-7.17l11.13-6.7c3.56-2.14,6.55-3.78,8.93-5l4.7-2.3,1.79-.88a9.9,9.9,0,0,1,7.24-.7,7.67,7.67,0,0,1,5.15,4.2,8.13,8.13,0,0,1,.08,6.73,9.64,9.64,0,0,1-4.93,5.29l-1.76.86-4.62,2.27c-1.76.87-4.19,2.26-7.26,4.11-3.49,2.11-7.35,4.47-11.4,6.81s-8.21,4.68-12.22,7.07-7.68,4.57-11,6.49-6.43,3.7-9.28,5.32-5.39,3-7.6,4.08l-3.09,1.53c-3.78,2-7.63.6-10.34-.52-1.61-.68-4.16-1.35-5.56-3-.32-.53-.47-.79-.78-1.32-.74-.91-1.84-2.23-3.22-3.93-1.55-1.93-2.77-3.55-3.66-4.68-.72-.91-2-2.54-3.78-4.86s-3.87-5-6.25-8-5.17-6.26-8.28-9.81c-3.29-3.76-6.69-7.91-10.23-11.93s-7.16-7.93-10.64-11.94-5.94-6.91-7.39-8.54a62.86,62.86,0,0,0-5.36-5.17l-3.78-3.57q-3.57-3.2-1.66-8.46A3.42,3.42,0,0,0,414.33,445.78Z" transform="translate(-157.12 -226.62)"/>
    <path class="cls-4" d="M551.17,373.94a7.24,7.24,0,0,1-.59-6.67,10.81,10.81,0,0,1,5.16-5.83l2.07-1.38c1.6-.85,4-2,6.82-3.4,3-1.52,5.77-2.84,7.85-3.78s5.58-2.63,10.39-4.74,9.36-4.15,13.64-6.14,8.18-3.88,11.59-5.4c3.57-1.59,7-3,10-4.21,3.17-1.33,5.87-2.32,7.83-3.09,2.29-.9,4.27-1.76,5.8-2.31l2.31-.81a11.43,11.43,0,0,1,7.86-.09,7.58,7.58,0,0,1,4,11.56,11.39,11.39,0,0,1-6.12,4.8l-2.27.8c-1.34.48-3.11,1-5,1.8s-4.47,2-7.4,3.15c-2.76,1.09-6,2.37-9.37,4s-7.31,3.36-11.72,5.32-9,4.13-13.66,6.24c-4.81,2.18-8.35,3.81-10.24,4.67s-4.56,2.06-7.24,3.52l-2.22.94,2.44,3a63.73,63.73,0,0,1,5.37,7.21c1.17,1.87,3.16,5.19,6,9.54s5.85,8.76,8.73,13.39l.17.4.72-.3c1.69-.86,3.88-2,6.56-3.42s5.63-3,8.83-4.75,6.9-3.44,10.28-5,6.53-3,9.76-4.2c2.91-1.1,5.17-1.94,6.79-2.54l2.59-1.19a10.57,10.57,0,0,1,7.83-.4,7.9,7.9,0,0,1,5.06,4.56,7.74,7.74,0,0,1-.47,6.66,10.66,10.66,0,0,1-5.5,5l-2.79,1.26q-2.88,1.06-7.41,2.77c-2.54,1-5.47,2.08-8.49,3.48s-6.14,2.95-8.95,4.44c-3,1.57-6.06,3.26-9.06,4.82-2.55,1.33-4.68,2.47-6.35,3.32,2.19,3.51,4.06,6.81,5.67,9.71,1.84,3.28,3.57,6.45,5.08,9,1.39,2.34,2.77,4.3,3.42,5.68.47,1,1.25,2.57,2.37,4.46.59,1,1.13,1.9,1.62,2.64l4.57-1.86q4.34-1.76,9.46-3.89l11.38-4.76q6.24-2.61,12.81-5.48c4.21-1.85,8.14-3.58,11.75-5.15,3.76-1.65,6.91-2.88,9.39-3.73l4.9-1.66,1.86-.63a9.8,9.8,0,0,1,7.21.25,7.77,7.77,0,0,1,4.55,4.84,8.19,8.19,0,0,1-.76,6.68,9.44,9.44,0,0,1-5.5,4.58l-1.84.62-4.81,1.64c-1.84.63-4.4,1.68-7.65,3.11-3.68,1.62-7.76,3.45-12,5.23s-8.64,3.54-12.87,5.38-8.1,3.49-11.61,5-6.77,2.8-9.77,4-5.65,2.22-8,3l-3.22,1.1c-4,1.49-7.55-.42-10.08-1.91-1.49-.88-3.92-1.88-5.08-3.76-.24-.56-.36-.84-.61-1.4-.61-1-1.52-2.45-2.66-4.32-1.3-2.12-2.29-3.88-3-5.12-.59-1-1.66-2.78-3.12-5.32s-3.18-5.44-5.15-8.71-4.31-6.88-6.92-10.81c-2.77-4.16-5.59-8.72-8.58-13.17s-6-8.8-9-13.23-5-7.63-6.21-9.44a62.9,62.9,0,0,0-4.63-5.83l-3.27-4c-2.06-2.42-2.27-5.28-.59-8.58A3.38,3.38,0,0,0,551.17,373.94Z" transform="translate(-157.12 -226.62)"/>
    <path class="cls-4" d="M912.58,233.9a7,7,0,0,1-.72,6.55,10.92,10.92,0,0,1-6.26,4.49,12.31,12.31,0,0,1-8.26-.18l-1.73-.69a16.74,16.74,0,0,0-2.49-.15,63.55,63.55,0,0,0-8.41,1,64.68,64.68,0,0,0-11.19,3,91.33,91.33,0,0,0-10.93,4.59A62.32,62.32,0,0,0,853.1,259a60.31,60.31,0,0,0-9.05,8.71,53.3,53.3,0,0,0-6.39,9.23,18,18,0,0,0-2,7.42,12.44,12.44,0,0,0,1,5.6,9.39,9.39,0,0,0,2.45,3.35,34.73,34.73,0,0,0,8,3.32,75.5,75.5,0,0,0,13.76,2.94c5.55.66,11,1.17,16.11,1.66,5.5.53,10.83,1.4,15.83,2.35a76.07,76.07,0,0,1,18.34,6.23,68.34,68.34,0,0,1,15.61,9.83c3.55,3.13,6.29,5.7,8.12,7.58a50.37,50.37,0,0,1,6.63,9.07,45.59,45.59,0,0,1,5.3,12.49,31.62,31.62,0,0,1,.71,12,27.42,27.42,0,0,1-3.15,9.46,36.82,36.82,0,0,1-5.23,7.25,39.89,39.89,0,0,1-8.39,6.48,80.73,80.73,0,0,1-11.63,5.81,70.42,70.42,0,0,1-13.93,4,108.16,108.16,0,0,1-13.57,1.74,93.49,93.49,0,0,1-13.9-.46c-4.38-.42-8.94-1-13.48-1.9a93.49,93.49,0,0,1-16.89-5.36A116.92,116.92,0,0,1,834,381.54a58.11,58.11,0,0,1-6-3.76l-1.5-1.27a7.53,7.53,0,0,1-3.25-5.71,8.1,8.1,0,0,1,2.3-6.45,10,10,0,0,1,6.78-3.15,10.21,10.21,0,0,1,7.06,1.82l1.74,1.25c.78.6,2.14,1.62,4,2.84s5.62,2.69,10.85,4.81a81.78,81.78,0,0,0,12.66,4.4,111,111,0,0,0,11.62,1.59,70.94,70.94,0,0,0,10.64.29A82.85,82.85,0,0,0,901.9,377a49.17,49.17,0,0,0,9.73-2.91,66.7,66.7,0,0,0,8.38-4.22,20.73,20.73,0,0,0,4.57-3.54A16.9,16.9,0,0,0,927,363a13.44,13.44,0,0,0,1.31-4.29,15.45,15.45,0,0,0-.58-5.87,30.48,30.48,0,0,0-3.55-8,38.31,38.31,0,0,0-4.68-6.33c-1.44-1.45-3.85-3.73-7-6.49a52.42,52.42,0,0,0-11.69-7,60.3,60.3,0,0,0-13.11-4.76c-4.27-.84-9-1.39-13.75-1.88-5.44-.57-11.07-1.09-16.7-1.72a100.11,100.11,0,0,1-18-3.71,53.36,53.36,0,0,1-14.09-6.16,22.74,22.74,0,0,1-8.25-9.81,28,28,0,0,1-2.26-12,33.11,33.11,0,0,1,3.5-13.53,63.84,63.84,0,0,1,8.47-12.82,81,81,0,0,1,11.9-11.73,85.81,85.81,0,0,1,13.41-8.72,103.15,103.15,0,0,1,13.94-6A105.15,105.15,0,0,1,881.2,228a70.56,70.56,0,0,1,13.24-1.36,31.61,31.61,0,0,1,10.76,1.67l2,.66A8.75,8.75,0,0,1,912.58,233.9Z" transform="translate(-157.12 -226.62)"/>
    <path class="cls-4" d="M974.23,263.37c3.52.17,7.73-.31,11.75-.55,4.37-.26,9-.37,13.62-.71,4.91-.37,8.78-.61,11.21-.73,2.6-.13,6.41-.42,11.22-.63s9.36-.37,13.64-.52,8-.37,11.24-.62c3.72-.28,6.77-.3,8.84-.33,2.25,0,4.2-.14,5.63-.12l1.87,0a10.87,10.87,0,0,1,7.29,2.81,7.81,7.81,0,0,1,2.89,6.2,7.57,7.57,0,0,1-3.23,5.91,11.12,11.12,0,0,1-7.32,2.33l-1.85,0c-1.24,0-2.89.09-4.76.13-1.69,0-4.32.09-7.66.34-3.51.26-7.49.44-11.87.6-3.86.13-8,.31-12.39.5v.22a61.91,61.91,0,0,1,.6,6.76c0,1.6.13,4,.33,7.2s.33,6.77.36,10.26c0,3.93.06,5.9.09,9.83,0,3.05.06,6,.09,8.95s-.2,6-.42,9.17-.2,6-.41,8.52c-.22,2.7-.36,5.33-.42,7.43s-.2,4.3-.18,6.34c0,4.1.07,6.15.12,10.26,0,1.31,0,2.69,0,4.14s0,2.77,0,3.72.26,2.4.28,3.7l0,4.81a7.73,7.73,0,0,1-2.81,6,10,10,0,0,1-6.66,2.62,9.55,9.55,0,0,1-6.65-2.36,7.9,7.9,0,0,1-2.93-5.93c0-1.92-.08-2.88-.13-4.8,0-1.16-.24-2.32-.34-3.27s-.06-2.32-.11-3.93c0-1.45-.08-2.9-.13-4.36-.11-4.1-.17-6.16-.29-10.26-.07-2.32,0-4.73,0-7.21s.2-5,.28-7.65.1-5.7.27-8.53.35-5.69.28-8.3c-.08-2.77-.15-5.68-.24-8.73-.1-3.93-.16-5.9-.26-9.83q-.13-4.8-.53-9.59c-.26-3.34-.42-5.81-.46-7.42,0-1.45-.19-3.49-.43-6.1l-.29-.65c-.7,0-1.54.18-2.36.29-4.4.56-9.46.46-13.94.71-4.67.27-9.21.56-13.42.64-.36,0-1.31-1.43-2.88-4.33a43.82,43.82,0,0,1-3.53-8.22c-.77-2.58,0-4.16,2.28-4.72l2.13-.12C972.53,263.24,973.38,263.33,974.23,263.37Z" transform="translate(-157.12 -226.62)"/>
    <path class="cls-4" d="M1107.23,268.72a12.41,12.41,0,0,1,8-.6,9.85,9.85,0,0,1,6.24,4.26,7.71,7.71,0,0,1,1,6.64l-1.32,3.62a30.47,30.47,0,0,0-1.44,5.37c-.23,1.92-.26,4.33-.35,6.87s-.14,5.22-.17,8,0,5.66.06,8.21.18,5.24.33,8,.35,5.1.61,7.37.73,4.68,1.13,7,1.07,5.09,1.91,8,1.57,5.33,2.21,7a19.77,19.77,0,0,0,1.93,3.88c1,1.54,2,2.94,2.89,4.18a33.87,33.87,0,0,0,2.92,3.54,19,19,0,0,0,2.77,2.21,28.74,28.74,0,0,0,3.27,2.05c1,.53,2.19,1.19,3,1.61a15.74,15.74,0,0,0,2.38.88,26.31,26.31,0,0,0,2.66.49,41.85,41.85,0,0,0,5.39.33,52.91,52.91,0,0,0,6-.24,23.93,23.93,0,0,0,3.51-.49c.82-.25,1.73-.68,2.59-1,1.61-1,3-1.68,4-2.17,1.21-.62,2.48-1.38,3.48-2a12.45,12.45,0,0,0,2-1.74,33.59,33.59,0,0,0,2.44-2.56,29.21,29.21,0,0,0,2.32-3.44c.72-1.2,1.58-2.62,2.29-4.11a40.69,40.69,0,0,0,1.83-4.39c.57-1.67,1-3.32,1.4-4.88s.78-3.22,1.16-4.92c.44-2,.7-4,1-5.59s.76-3.28.85-4.51c.12-1.52.14-3.66.3-6.13.16-2.62.18-4.75.28-6.13a27.51,27.51,0,0,0,0-4.18c-.15-1.75-.31-3.62-.36-5.33,0-1.41-.09-2.9-.24-4.22-.17-1.59-.18-3.2-.19-4.64a35.52,35.52,0,0,0-.31-3.79c-.18-1.46-.4-2.95-.53-4.24-.18-1.84-.17-3.55-.18-4.87.08-.61.11-.91.19-1.51a7.19,7.19,0,0,1,3.41-5.74,11.28,11.28,0,0,1,7.53-1.87,11.56,11.56,0,0,1,7.25,3.19,7.86,7.86,0,0,1,2.73,6.34l-.19,1.3a10.68,10.68,0,0,0,.22,2.24c.2,1.41.27,3.06.38,4.69s0,3.4.09,4.86c.07,1.11.17,2.63.21,4s.32,3.19.34,4.9c0,1.41,0,3.05.1,4.65.09,2,0,4-.07,5.73s-.2,3.73-.42,6.34-.58,5.08-.75,6.73-.47,3.69-.84,5.62c-.34,1.78-.66,3.8-1.12,5.79s-1,4.08-1.51,5.85-1.06,3.69-1.72,5.59a62.46,62.46,0,0,1-5.78,12,43.29,43.29,0,0,1-3.73,5.09,49.65,49.65,0,0,1-4.09,4.39,37,37,0,0,1-4.69,3.55c-1.54,1-3.27,2.09-4.82,2.89s-3,1.41-4.2,2.1a32,32,0,0,1-5.67,2.38,37,37,0,0,1-7.74,1.5,84.07,84.07,0,0,1-8.55.38,62.9,62.9,0,0,1-7.71-.58,38.83,38.83,0,0,1-6.67-1.3,42.4,42.4,0,0,1-4.93-1.76c-1-.51-2.52-1.34-4-2.1a58.62,58.62,0,0,1-5.54-3.63,37.53,37.53,0,0,1-5.49-4.69,53.13,53.13,0,0,1-4.18-4.9c-1.27-1.7-2.5-3.49-3.7-5.29a43.1,43.1,0,0,1-3.52-6.57,72.76,72.76,0,0,1-3.19-8.73c-1-3.46-1.68-6.76-2.2-9.53s-1-5.3-1.32-7.95-.63-5.36-.82-8.13l-.57-8.34c-.2-2.78-.3-5.71-.31-8.77s0-6,.08-8.85.09-5.42.27-7.53a36.37,36.37,0,0,1,2-8.63c.51-1.55.76-2.33,1.27-3.87A7.81,7.81,0,0,1,1107.23,268.72Z" transform="translate(-157.12 -226.62)"/>
    <path class="cls-4" d="M1235.37,339.72l-2.89-2.72,0-3.55a7.39,7.39,0,0,1,3-6,9.86,9.86,0,0,1,7.18-2.17l1.56.06c1.21.08,3,.26,5.16.5,1.7.19,5,.47,9.59.71,1.89.1,3.84.16,5.76.24.08-.43.2-.94.3-1.5.5-2.93.71-6.32,1.11-9.57.45-3.65,1.18-7.26,1.84-10.55s1.27-6.42,1.87-9.42,1.17-5.41,1.71-7.23,1.3-4.48,2.37-7.77a48.54,48.54,0,0,1,4.83-10.28,44.35,44.35,0,0,1,5.89-7.71,36.39,36.39,0,0,1,6.86-5.38,28.2,28.2,0,0,1,9.51-3.56,42.65,42.65,0,0,1,8.4-.83A45.82,45.82,0,0,1,1318,254a50.09,50.09,0,0,1,10.33,3.33,49.14,49.14,0,0,1,9,5.13,63.13,63.13,0,0,1,6.27,5.63,30.06,30.06,0,0,1,5.15,6.52,63.23,63.23,0,0,1,3.06,6.67c.75,1.85,1.6,3.75,2.19,5.56.52,1.59,1,3.48,1.64,5.41a62.39,62.39,0,0,1,1.78,6.83,52.47,52.47,0,0,1,1,6.61,60.79,60.79,0,0,1-.15,6.53l-.1,3.37a7.07,7.07,0,0,1-3.4,5.74,10.76,10.76,0,0,1-7.47,1.69,11.67,11.67,0,0,1-7.18-3.38,8.65,8.65,0,0,1-2.82-6.5l0-3.37a37.12,37.12,0,0,0,.18-4.91c-.12-1.17-.38-3-.73-4.7a46.32,46.32,0,0,0-1.42-5.32c-.54-1.61-1.3-3.3-1.83-4.86s-1.14-3.26-1.81-5.06a22.09,22.09,0,0,0-2.11-3.9,17,17,0,0,0-2.08-3,26.17,26.17,0,0,0-3.73-3.15,28.61,28.61,0,0,0-4.43-2.62,18.06,18.06,0,0,0-4.16-1.43,30.8,30.8,0,0,0-4-.35,16.05,16.05,0,0,0-3.87.35,3.24,3.24,0,0,0-1.88.92,12.56,12.56,0,0,0-3.69,2.76,36.81,36.81,0,0,0-3.9,5.07,32.7,32.7,0,0,0-3.5,7.17c-1.09,3.15-1.85,5.52-2.35,7a62.44,62.44,0,0,0-1.68,6.45c-.64,3-1.31,6.05-2,9.18s-1.3,6.12-1.74,9.23c-.5,3.55-.89,7-1.38,10l-.09.43c1.38.15,2.78.43,4.1.67,4.29.81,8.26,1.49,11.24,2.1,2.64.54,4.78.82,6.16,1l2.33.33a11.33,11.33,0,0,1,6.7,3.76,8,8,0,0,1,2.12,6.49,7.53,7.53,0,0,1-3.63,5.51,10.69,10.69,0,0,1-7.48,1.44l-2-.27c-1.69-.25-4.13-.61-7.07-1.22-2.78-.57-6.68-1.23-11.07-2.06-1.46-.28-3-.59-4.54-.78-.12.57-.27,1.15-.37,1.71-.68,3.49-1.18,7-1.7,10.13-.58,3.44-1.21,6.67-1.86,9.65-1.26,5.72-1.89,8.58-3.14,14.29-.34,1.57-.84,3.4-1.46,5.5s-1.24,4.23-1.79,5.86c-.41,1.24-.73,2.23-.89,2.94l-2.52,11.52a8.09,8.09,0,0,1-4,5.5,10.33,10.33,0,0,1-13.16-2.75,8.07,8.07,0,0,1-1.48-6.64l2.31-11.56a37,37,0,0,1,1.47-4.83c.44-1.21.76-2.9,1.19-4.66s1-3.59,1.23-4.88c1.15-5.74,1.73-8.61,2.88-14.34.58-2.86,1.12-5.94,1.61-9.26.47-3.16,1-6.49,1.48-10l0-.21-3.08-.16c-4.78-.35-8.35-.51-10.5-.69-2-.16-3.47-.34-4.33-.35l-1.5-.28A10.09,10.09,0,0,1,1235.37,339.72Z" transform="translate(-157.12 -226.62)"/>
    <path class="cls-4" d="M1373,372.73c-1.69-2-2.55-3.06-2.55-3.06s.14-1.18.41-3.53a7.35,7.35,0,0,1,3.72-5.6,9.91,9.91,0,0,1,7.44-1.25l1.55.25c1.2.23,2.91.63,5.09,1.14,1.67.4,4.9,1.09,9.49,1.91,1.87.34,3.8.64,5.71,1,.14-.41.32-.9.48-1.45.86-2.85,1.49-6.19,2.29-9.36.89-3.57,2.06-7.06,3.12-10.24s2.06-6.22,3-9.12,1.82-5.23,2.59-7,1.84-4.28,3.32-7.41a47.91,47.91,0,0,1,6.08-9.6,44.38,44.38,0,0,1,6.82-6.92,36.36,36.36,0,0,1,7.51-4.47,28.17,28.17,0,0,1,9.93-2.34,44,44,0,0,1,8.5.24,45.59,45.59,0,0,1,8.44,2.13,50.61,50.61,0,0,1,9.91,4.62,49.73,49.73,0,0,1,8.38,6.23,65.12,65.12,0,0,1,5.58,6.39,30.36,30.36,0,0,1,4.34,7.13,61.16,61.16,0,0,1,2.25,7c.53,1.93,1.14,3.93,1.51,5.8.32,1.65.6,3.59,1,5.59a59.69,59.69,0,0,1,1,7,53.69,53.69,0,0,1,.17,6.69,58.57,58.57,0,0,1-1,6.47c-.2,1.34-.31,2-.51,3.34a7.06,7.06,0,0,1-4.1,5.27,10.91,10.91,0,0,1-7.68.72A11.83,11.83,0,0,1,1480,366a8.62,8.62,0,0,1-2-6.81c.19-1.33.28-2,.47-3.34a35.64,35.64,0,0,0,.77-4.86c0-1.17,0-3-.15-4.76a45.69,45.69,0,0,0-.77-5.46c-.34-1.66-.89-3.44-1.24-5.06s-.73-3.38-1.18-5.26a22.6,22.6,0,0,0-1.64-4.14,16.9,16.9,0,0,0-1.71-3.22,26.13,26.13,0,0,0-3.34-3.6,29.62,29.62,0,0,0-4.11-3.17,18.48,18.48,0,0,0-4-1.94,30,30,0,0,0-3.94-.86,16.14,16.14,0,0,0-3.91-.14,3.31,3.31,0,0,0-2,.68,12.73,12.73,0,0,0-4,2.27,37.81,37.81,0,0,0-4.51,4.54,32.68,32.68,0,0,0-4.38,6.68c-1.47,3-2.52,5.25-3.2,6.63a64.63,64.63,0,0,0-2.46,6.19q-1.52,4.34-3.11,8.86c-1,2.89-2,5.92-2.87,8.95-.93,3.46-1.74,6.79-2.6,9.74l-.14.41c1.36.33,2.72.78,4,1.19,4.18,1.34,8.07,2.52,11,3.5,2.57.87,4.68,1.42,6,1.77l2.28.62a11.55,11.55,0,0,1,6.24,4.58,8,8,0,0,1,1.33,6.72,7.53,7.53,0,0,1-4.31,5,10.77,10.77,0,0,1-7.64.47l-2-.52c-1.67-.47-4.06-1.13-6.92-2.1-2.7-.93-6.52-2.08-10.8-3.46-1.43-.46-2.94-1-4.44-1.34-.2.55-.41,1.11-.59,1.65-1.1,3.38-2,6.78-2.93,9.85q-1.5,5-3,9.35c-2,5.51-2.93,8.27-4.88,13.79-.54,1.51-1.26,3.27-2.13,5.27s-1.76,4-2.51,5.6c-.56,1.17-1,2.12-1.25,2.8l-3.92,11.12a8.08,8.08,0,0,1-4.7,4.95A10.41,10.41,0,0,1,1380,444.8a8,8,0,0,1-.67-6.78l3.72-11.19a35.65,35.65,0,0,1,2.06-4.61c.58-1.15,1.11-2.78,1.76-4.48s1.41-3.44,1.82-4.68c1.86-5.56,2.78-8.33,4.64-13.88.92-2.76,1.84-5.76,2.73-9,.86-3.08,1.75-6.32,2.7-9.69l.07-.21-3.06-.55c-4.73-.94-8.27-1.55-10.39-2-1.95-.42-3.43-.78-4.28-.9l-1.47-.46A10.22,10.22,0,0,1,1373,372.73Z" transform="translate(-157.12 -226.62)"/>
    <path class="cls-4" d="M1673,390.28a13.68,13.68,0,0,1,7.61,4.29,10,10,0,0,1,2.88,7.11,6.5,6.5,0,0,1-3.28,5.67l-3.85,2.52a37.63,37.63,0,0,0-4.64,3.31c-1.15,1.09-2.83,3.06-5,5.64a108.84,108.84,0,0,0-7,9c-2.51,3.63-5,7.55-7.44,11.33s-4.39,6.79-5.51,8.66q-1.45,2.44-4,7.77c-1.72,3.56-3.45,7.2-4.92,10.81a114.71,114.71,0,0,0-4,11.33c-1,3.4-1.6,5.95-1.82,7.08-.31,1.62-.46,4.49-1.06,7.79-.54,3.05-1.07,6.47-1.34,9.68s-.41,6.45-.41,9.51-.15,6.05,0,8.75a64.52,64.52,0,0,0,.78,6.69,56.45,56.45,0,0,0,1.1,5.62,50.37,50.37,0,0,0,2.68,6.65,20.31,20.31,0,0,0,2.73,4.63,33.93,33.93,0,0,0,2.92,3c1.1,1,1.9,1.78,2.4,2.11a25.23,25.23,0,0,0,3.3,1.66,23.67,23.67,0,0,0,4.73,1.59,54,54,0,0,0,6.55.74,30.74,30.74,0,0,0,7-.25,69,69,0,0,0,9.12-1.92c3.16-.92,6.44-2,9.71-3.06a49.38,49.38,0,0,0,6.47-2.39q2-1,6-3.23c2.67-1.49,5.16-3.2,7.38-4.66a56.18,56.18,0,0,0,6.52-5c2.18-2,4.4-3.82,6.37-5.63s3.39-3.14,4.2-4,2.2-2.57,3.9-4.46,3.54-4.12,5.18-6.22c1.47-1.89,3-4,4.36-6s2.55-3.68,3-4.67,1.33-2.54,2.51-4.65,2.14-4.34,3-6.31,1.62-3.77,1.9-4.55c.35-1,1.26-2.53,2.13-4.39s1.65-3.5,2.27-5.09c.69-1.77,1.56-3.59,2.14-4.92.43-1,1-2.58,1.49-4,.65-1.93,1.16-3.66,1.51-4.56a33.65,33.65,0,0,0,1-3.33c.18-.59.47-1.48.82-2.64a23.87,23.87,0,0,1,1.72-4.4c.17-.64.25-.95.41-1.58a7.33,7.33,0,0,1,5.5-4,11.48,11.48,0,0,1,8,1.48,14.29,14.29,0,0,1,6,6.28c1.29,2.66,1.39,5.05.32,7.16l-.67,1.4c-.28.7-.56,1.59-.86,2.62-.46,1.63-.83,3.08-1.18,4-.28.78-.64,1.87-1,2.8s-1.09,2.37-1.68,4.19a40.56,40.56,0,0,1-2,5.58c-.63,1.26-1.53,2.77-2.18,4.37-.72,1.76-1.5,3.72-2.4,5.57l-1.93,4c-.46.92-1.16,2.51-2.12,4.69s-2.19,4.64-3.47,6.95-2.26,4.09-2.94,5.31-2,2.95-3.53,5.13-3.48,4.78-5.25,7-3.74,4.49-5.56,6.48-3.27,3.73-4.37,4.9-2.93,2.7-5.14,4.61-4.35,3.94-6.74,5.86-5.3,4-8,5.87a89,89,0,0,1-8.66,5.27c-3,1.64-5.46,3-7.17,3.8a66.71,66.71,0,0,1-8.56,2.94c-3.56,1.07-7.22,2.14-10.74,3-3.83,1-7.67,2-11.16,2.5a53.83,53.83,0,0,1-11.33.32,57.1,57.1,0,0,1-10-1.36,47.31,47.31,0,0,1-9-3.19c-2.57-1.22-4.6-2.24-6-3.1a34.78,34.78,0,0,1-5-3.69,59.35,59.35,0,0,1-5.74-5.8,39.56,39.56,0,0,1-5.52-9.47,94.51,94.51,0,0,1-3.89-9.38,60,60,0,0,1-1.63-7.68,87.75,87.75,0,0,1-1-8.8c-.19-3-.2-6.21-.2-9.55,0-3.55,0-7.29.3-11s.6-7.75,1.2-11.21c.53-3.08,1.1-5.63,1.28-7.35a61.78,61.78,0,0,1,2.13-9.38q1.8-6.27,4.16-12.48c1.57-4.13,3.29-8.19,5.15-12.15s3.38-7,4.54-9,2.91-4.88,5.46-9,4.94-8,7.45-11.84a116,116,0,0,1,7.71-10.3c2.49-3,4.51-5.2,5.89-6.56a52.25,52.25,0,0,1,6.75-5.42l3.94-2.25C1667.45,390.05,1670,389.65,1673,390.28Z" transform="translate(-157.12 -226.62)"/>
    <path class="cls-4" d="M1890,560.33a12.47,12.47,0,0,1,3.43,7.77,6.86,6.86,0,0,1-2.67,6.21c-1.9,1.41-4.27,1.76-7.1,1.07l-2-.42c-1.11-.25-3.47-.7-6.93-1.14-3.79-.49-8.41-.8-13.65-1.08s-11.82-.47-19.68-.52q-12.16-.09-19.68,0c-4.53.06-9.9.23-16,.54-5.87.29-10.18.58-12.74.87s-5,.65-6.8.83c2,3.58,4.45,8.22,7.2,13.89,2.85,5.87,5.07,11.08,6.75,15.48s3.15,8.86,4.43,13.37,2.28,8.78,3.13,12.62,1.5,7.66,2.09,11.19,1.35,7.16,1.7,10.31a118.73,118.73,0,0,1,.66,12.43c0,4.33-.11,7.74-.08,10,0,2.69,0,5.06-.13,6.92s-.2,3.69-.45,5.69c-.09,1.14-.14,1.71-.24,2.85a7.18,7.18,0,0,1-3.44,5.67,8.29,8.29,0,0,1-6.88,1,11.42,11.42,0,0,1-6.36-4.43,10.24,10.24,0,0,1-2.3-7.11c.09-1.13.13-1.7.21-2.83.13-1.89.26-3.7.43-5.34a36.54,36.54,0,0,0,.08-5.36c-.11-2.42-.21-6-.24-10.44a87.58,87.58,0,0,0-.47-10.3c-.4-2.94-.89-6.18-1.51-9.69-.58-3.29-1.25-6.78-2-10.41-.74-3.41-1.8-7.16-2.94-11.12s-2.4-8.1-3.88-11.82-3.76-8.5-6.27-13.73-4.65-9.53-6.4-12.49a.91.91,0,0,0-.28-.52q-3.83,5.06-7.69,9.94c-2.57,3.25-5,6.75-7.49,10.09s-5.28,6.79-7.88,9.92l-5.15,6.23c-.84,1-1.64,2-2.41,3.1s-1.51,2-2,2.61c-.73,1-1.48,2.18-2.31,3.19l-3.35,4a7.77,7.77,0,0,1-6.31,2.85,10.88,10.88,0,0,1-7.07-2.55,10.47,10.47,0,0,1-3.83-6.33,8,8,0,0,1,1.62-6.69l3.27-4.09c.54-.68,1-1.54,1.43-2.21s1.4-1.82,2.29-3.07,1.82-2.49,2.82-3.75l5-6.31c2.36-3,4.91-6.16,7.29-9.56s5.11-7.11,7.61-10.4,5.1-6.85,7.47-10.24,5.07-7.46,7.89-11.45,5.54-7.92,8.15-11.79,5.49-7.67,8-11,4.85-6.86,7.43-10.28l7.77-10.27c2.5-3.3,4.85-6.29,6.69-8.92,2-2.85,3.43-4.8,4.24-5.83l1.22-1.54a7.32,7.32,0,0,1,6.34-2.63,14.33,14.33,0,0,1,12.67,10.23,7.33,7.33,0,0,1-1.22,6.77l-1.24,1.52c-.74.9-2,2.66-3.94,5.25s-4.48,5.76-7.12,9.12-5.27,6.72-7.83,10-5.15,7-7.61,10.14c-2,2.58-4.23,5.29-6.3,8.1,2.95-.39,7.15-.68,12.42-1,6.16-.4,11.88-.64,16.76-.69s11.31-.16,19.4-.24,15.16,0,20.73.3,10.42.69,14.54,1.11a75.33,75.33,0,0,1,9.17,1.32l2.26.61A13.28,13.28,0,0,1,1890,560.33Z" transform="translate(-157.12 -226.62)"/>
  </g>
</svg>
